<svg width="19" height="19" viewBox="0 0 19 19" fill="none" xmlns="http://www.w3.org/2000/svg">
<path d="M13.4653 6.12769H12.4708C12.2545 6.12769 12.0488 6.23159 11.9216 6.40972L8.58811 11.0325L7.07829 8.9374C6.95105 8.76139 6.74748 8.65536 6.52907 8.65536H5.53454C5.3967 8.65536 5.31612 8.81228 5.3967 8.92467L8.03889 12.589C8.10131 12.6761 8.18359 12.7471 8.27892 12.796C8.37425 12.845 8.47988 12.8706 8.58705 12.8706C8.69422 12.8706 8.79985 12.845 8.89518 12.796C8.9905 12.7471 9.07279 12.6761 9.13521 12.589L13.6011 6.39699C13.6838 6.28461 13.6032 6.12769 13.4653 6.12769Z" fill="#8D8D8D"/>
<path d="M9.5 0C4.25379 0 0 4.25379 0 9.5C0 14.7462 4.25379 19 9.5 19C14.7462 19 19 14.7462 19 9.5C19 4.25379 14.7462 0 9.5 0ZM9.5 17.3884C5.14442 17.3884 1.61161 13.8556 1.61161 9.5C1.61161 5.14442 5.14442 1.61161 9.5 1.61161C13.8556 1.61161 17.3884 5.14442 17.3884 9.5C17.3884 13.8556 13.8556 17.3884 9.5 17.3884Z" fill="#8D8D8D"/>
</svg>
