<svg width="24" height="25" viewBox="0 0 24 25" fill="none" xmlns="http://www.w3.org/2000/svg">
<path fill-rule="evenodd" clip-rule="evenodd" d="M4 1.41669C3.0335 1.41669 2.25 2.20019 2.25 3.16669V6.16669C2.25 7.13319 3.0335 7.91669 4 7.91669H4.75V13.4167H4C3.0335 13.4167 2.25 14.2002 2.25 15.1667V18.1667C2.25 19.1332 3.0335 19.9167 4 19.9167H7C7.9665 19.9167 8.75 19.1332 8.75 18.1667V17.4167H10C10.4142 17.4167 10.75 17.0809 10.75 16.6667C10.75 16.2525 10.4142 15.9167 10 15.9167H8.75V15.1667C8.75 14.2002 7.9665 13.4167 7 13.4167H6.25V7.91669H7C7.9665 7.91669 8.75 7.13319 8.75 6.16669V5.41669H14.25V6.16669C14.25 7.13319 15.0335 7.91669 16 7.91669H16.75V9.16669C16.75 9.5809 17.0858 9.91669 17.5 9.91669C17.9142 9.91669 18.25 9.5809 18.25 9.16669V7.91669H19C19.9665 7.91669 20.75 7.13319 20.75 6.16669V3.16669C20.75 2.20019 19.9665 1.41669 19 1.41669H16C15.0335 1.41669 14.25 2.20019 14.25 3.16669V3.91669H8.75V3.16669C8.75 2.20019 7.9665 1.41669 7 1.41669H4ZM17.5 6.41669H19C19.1381 6.41669 19.25 6.30476 19.25 6.16669V3.16669C19.25 3.02862 19.1381 2.91669 19 2.91669H16C15.8619 2.91669 15.75 3.02862 15.75 3.16669V4.66669V6.16669C15.75 6.30476 15.8619 6.41669 16 6.41669H17.5ZM7.25 15.1667V16.6667V18.1667C7.25 18.3048 7.13807 18.4167 7 18.4167H4C3.86193 18.4167 3.75 18.3048 3.75 18.1667V15.1667C3.75 15.0286 3.86193 14.9167 4 14.9167H5.5H7C7.13807 14.9167 7.25 15.0286 7.25 15.1667ZM7.25 3.16669V4.66669V6.16669C7.25 6.30476 7.13807 6.41669 7 6.41669H5.5H4C3.86193 6.41669 3.75 6.30476 3.75 6.16669V3.16669C3.75 3.02862 3.86193 2.91669 4 2.91669H7C7.13807 2.91669 7.25 3.02862 7.25 3.16669ZM16 17.1667C15.5858 17.1667 15.25 17.5025 15.25 17.9167C15.25 18.3309 15.5858 18.6667 16 18.6667H18C18.4142 18.6667 18.75 18.3309 18.75 17.9167C18.75 17.5025 18.4142 17.1667 18 17.1667H16ZM15.25 15.4167C15.25 15.0025 15.5858 14.6667 16 14.6667H18C18.4142 14.6667 18.75 15.0025 18.75 15.4167C18.75 15.8309 18.4142 16.1667 18 16.1667H16C15.5858 16.1667 15.25 15.8309 15.25 15.4167ZM15 11.4167C13.4812 11.4167 12.25 12.6479 12.25 14.1667V19.1667C12.25 20.6855 13.4812 21.9167 15 21.9167H19C20.5188 21.9167 21.75 20.6855 21.75 19.1667V14.1667C21.75 12.6479 20.5188 11.4167 19 11.4167H15ZM13.75 14.1667C13.75 13.4763 14.3096 12.9167 15 12.9167H19C19.6904 12.9167 20.25 13.4763 20.25 14.1667V19.1667C20.25 19.857 19.6904 20.4167 19 20.4167H15C14.3096 20.4167 13.75 19.857 13.75 19.1667V14.1667Z" fill="#1C1F25"/>
</svg>