<svg width="20" height="20" viewBox="0 0 20 20" fill="none" xmlns="http://www.w3.org/2000/svg">
<path d="M19.6998 9.84241L11.0748 1.22188L10.4967 0.64375C10.365 0.512895 10.1869 0.439453 10.0012 0.439453C9.8155 0.439453 9.63737 0.512895 9.50564 0.64375L0.302517 9.84241C0.167542 9.97686 0.060869 10.137 -0.0112056 10.3133C-0.0832801 10.4897 -0.119295 10.6787 -0.117125 10.8692C-0.108197 11.6549 0.545821 12.2821 1.33154 12.2821H2.2802V19.5522H17.7222V12.2821H18.6909C19.0726 12.2821 19.432 12.1326 19.7021 11.8625C19.8351 11.7299 19.9404 11.5723 20.0121 11.3987C20.0837 11.2252 20.1202 11.0391 20.1195 10.8513C20.1195 10.4719 19.9699 10.1125 19.6998 9.84241ZM11.2512 17.9451H8.75118V13.3915H11.2512V17.9451ZM16.115 10.675V17.9451H12.6797V12.8558C12.6797 12.3625 12.2802 11.9629 11.7869 11.9629H8.21546C7.72216 11.9629 7.32261 12.3625 7.32261 12.8558V17.9451H3.88734V10.675H1.74448L10.0034 2.42277L10.519 2.93839L18.2601 10.675H16.115Z" fill="#096DD9"/>
</svg>