<svg width="24" height="25" viewBox="0 0 24 25" fill="none" xmlns="http://www.w3.org/2000/svg">
<path fill-rule="evenodd" clip-rule="evenodd" d="M3.75 6.83337C3.75 5.59073 4.75736 4.58337 6 4.58337H18C19.2426 4.58337 20.25 5.59073 20.25 6.83337V9.08337H3.75V6.83337ZM2.25 9.83337V6.83337C2.25 4.76231 3.92893 3.08337 6 3.08337H18C20.0711 3.08337 21.75 4.76231 21.75 6.83337V9.83337V12.8334C21.75 13.2476 21.4142 13.5834 21 13.5834C20.5858 13.5834 20.25 13.2476 20.25 12.8334V10.5834H3.75V18.8334C3.75 20.076 4.75736 21.0834 6 21.0834H9C9.41421 21.0834 9.75 21.4192 9.75 21.8334C9.75 22.2476 9.41421 22.5834 9 22.5834H6C3.92893 22.5834 2.25 20.9044 2.25 18.8334V9.83337ZM11.5303 6.29804C11.2374 6.00515 10.7626 6.00515 10.4697 6.29804L10.4647 6.30304C10.1718 6.59593 10.1718 7.07081 10.4647 7.3637L10.4697 7.3687C10.7626 7.66159 11.2374 7.66159 11.5303 7.3687L11.5353 7.3637C11.8282 7.07081 11.8282 6.59593 11.5353 6.30304L11.5303 6.29804ZM7.96967 6.29804C8.26256 6.00515 8.73743 6.00515 9.03032 6.29804L9.03533 6.30304C9.32822 6.59593 9.32822 7.07081 9.03533 7.3637L9.03032 7.3687C8.73743 7.66159 8.26256 7.66159 7.96967 7.3687L7.96466 7.3637C7.67177 7.07081 7.67177 6.59593 7.96466 6.30304L7.96967 6.29804ZM6.53032 6.29804C6.23743 6.00515 5.76256 6.00515 5.46967 6.29804L5.46466 6.30304C5.17177 6.59593 5.17177 7.07081 5.46466 7.3637L5.46967 7.3687C5.76256 7.66159 6.23743 7.66159 6.53032 7.3687L6.53533 7.3637C6.82822 7.07081 6.82822 6.59593 6.53533 6.30304L6.53032 6.29804ZM13.2412 16.4919C13.241 16.4919 13.2416 16.4904 13.2432 16.4874C13.2421 16.4904 13.2413 16.4919 13.2412 16.4919ZM13.25 16.477C13.2616 16.4605 13.2868 16.4307 13.3375 16.3879C13.4715 16.2747 13.71 16.139 14.0703 16.0103C14.7843 15.7553 15.82 15.5834 17 15.5834C18.18 15.5834 19.2157 15.7553 19.9297 16.0103C20.29 16.139 20.5285 16.2747 20.6625 16.3879C20.7132 16.4307 20.7384 16.4605 20.75 16.477V17.6898C20.7384 17.7062 20.7132 17.7361 20.6625 17.7789C20.5285 17.8921 20.29 18.0278 19.9297 18.1564C19.2157 18.4114 18.18 18.5834 17 18.5834C15.82 18.5834 14.7843 18.4114 14.0703 18.1564C13.71 18.0278 13.4715 17.8921 13.3375 17.7789C13.2868 17.7361 13.2616 17.7062 13.25 17.6898V16.477ZM11.75 17.7263V16.4405C11.75 15.9122 12.0518 15.5103 12.3698 15.2418C12.6911 14.9705 13.1117 14.7599 13.5658 14.5977C14.4804 14.2711 15.6947 14.0834 17 14.0834C18.3053 14.0834 19.5196 14.2711 20.4342 14.5977C20.8883 14.7599 21.3089 14.9705 21.6302 15.2418C21.9482 15.5103 22.25 15.9122 22.25 16.4405V17.7263V21.2262C22.25 21.7545 21.9482 22.1564 21.6302 22.4249C21.3089 22.6963 20.8883 22.9069 20.4342 23.069C19.5196 23.3957 18.3053 23.5834 17 23.5834C15.6947 23.5834 14.4804 23.3957 13.5658 23.069C13.1117 22.9069 12.6911 22.6963 12.3698 22.4249C12.0518 22.1564 11.75 21.7545 11.75 21.2262V17.7263ZM20.75 19.4457V21.1898C20.7384 21.2062 20.7132 21.2361 20.6625 21.2789C20.5285 21.392 20.29 21.5277 19.9297 21.6564C19.2157 21.9114 18.18 22.0834 17 22.0834C15.82 22.0834 14.7843 21.9114 14.0703 21.6564C13.71 21.5277 13.4715 21.392 13.3375 21.2789C13.2868 21.2361 13.2616 21.2062 13.25 21.1898V19.4457C13.3528 19.4896 13.4584 19.5307 13.5658 19.5691C14.4804 19.8957 15.6947 20.0834 17 20.0834C18.3053 20.0834 19.5196 19.8957 20.4342 19.5691C20.5416 19.5307 20.6472 19.4896 20.75 19.4457ZM13.2412 21.1748C13.2413 21.1748 13.2421 21.1763 13.2432 21.1793C13.2416 21.1763 13.241 21.1748 13.2412 21.1748ZM20.7588 21.1748C20.7589 21.1748 20.7589 21.175 20.7587 21.1753C20.7586 21.1757 20.7584 21.1762 20.758 21.177C20.7577 21.1776 20.7573 21.1784 20.7568 21.1793C20.7579 21.1763 20.7587 21.1748 20.7588 21.1748ZM20.7588 16.4919C20.7587 16.4919 20.7579 16.4904 20.7568 16.4874C20.7584 16.4904 20.759 16.4919 20.7588 16.4919Z" fill="#1C1F25"/>
</svg>