<svg width="21" height="21" viewBox="0 0 21 21" fill="none" xmlns="http://www.w3.org/2000/svg">
<g clip-path="url(#clip0_1044_47983)">
<path d="M10.7498 9.7511V10.2511H11.2498H14.4998V10.7511H11.2498H10.7498V11.2511V14.5011H10.2498V11.2511V10.7511H9.74982H6.49982V10.2511H9.74982H10.2498V9.7511V6.5011H10.7498V9.7511ZM0.5 10.5C0.5 4.97771 4.97771 0.5 10.5 0.5C16.0223 0.5 20.5 4.9777 20.5 10.5C20.5 16.0223 16.0223 20.5 10.5 20.5C4.9777 20.5 0.5 16.0223 0.5 10.5ZM1.28125 10.5C1.28125 15.5902 5.4098 19.7188 10.5 19.7188C15.5902 19.7188 19.7188 15.5902 19.7188 10.5C19.7188 5.4098 15.5902 1.28125 10.5 1.28125C5.4098 1.28125 1.28125 5.4098 1.28125 10.5Z" fill="#00539A" stroke="#00539A"/>
</g>
<defs>
<clipPath id="clip0_1044_47983">
<rect width="21" height="21" fill="white"/>
</clipPath>
</defs>
</svg>
