<svg width="28" height="28" viewBox="0 0 28 28" fill="none" xmlns="http://www.w3.org/2000/svg">
<path d="M14 0C6.26875 0 0 6.26875 0 14C0 21.7313 6.26875 28 14 28C21.7313 28 28 21.7313 28 14C28 6.26875 21.7313 0 14 0ZM14 22.125C13.3094 22.125 12.75 21.5656 12.75 20.875C12.75 20.1844 13.3094 19.625 14 19.625C14.6906 19.625 15.25 20.1844 15.25 20.875C15.25 21.5656 14.6906 22.125 14 22.125ZM15.9656 15.2656C15.6826 15.3749 15.4391 15.5669 15.2669 15.8167C15.0946 16.0664 15.0016 16.3623 15 16.6656V17.375C15 17.5125 14.8875 17.625 14.75 17.625H13.25C13.1125 17.625 13 17.5125 13 17.375V16.7031C13 15.9812 13.2094 15.2687 13.6219 14.675C14.025 14.0937 14.5875 13.65 15.25 13.3969C16.3125 12.9875 17 12.0969 17 11.125C17 9.74687 15.6531 8.625 14 8.625C12.3469 8.625 11 9.74687 11 11.125V11.3625C11 11.5 10.8875 11.6125 10.75 11.6125H9.25C9.1125 11.6125 9 11.5 9 11.3625V11.125C9 9.89688 9.5375 8.75 10.5125 7.89688C11.45 7.075 12.6875 6.625 14 6.625C15.3125 6.625 16.55 7.07813 17.4875 7.89688C18.4625 8.75 19 9.89688 19 11.125C19 12.9312 17.8094 14.5562 15.9656 15.2656Z" fill="#C6C6C6"/>
</svg>
