<svg width="14" height="14" viewBox="0 0 14 14" fill="none" xmlns="http://www.w3.org/2000/svg">
<g clip-path="url(#clip0_1304_3522)">
<rect width="14" height="14" fill="white" fill-opacity="0.01"/>
<g clip-path="url(#clip1_1304_3522)">
<path d="M13.4498 8.77891L12.4264 7.90391C12.4748 7.60703 12.4998 7.30391 12.4998 7.00078C12.4998 6.69766 12.4748 6.39453 12.4264 6.09766L13.4498 5.22266C13.527 5.15657 13.5823 5.06856 13.6082 4.97031C13.6342 4.87206 13.6296 4.76824 13.5951 4.67266L13.5811 4.63203C13.2993 3.84457 12.8774 3.11459 12.3358 2.47734L12.3076 2.44453C12.2419 2.36727 12.1544 2.31173 12.0565 2.28523C11.9586 2.25873 11.8549 2.26252 11.7592 2.29609L10.4889 2.74766C10.0201 2.36328 9.49671 2.06016 8.93108 1.84766L8.68577 0.519531C8.66726 0.419597 8.61878 0.32766 8.54678 0.255934C8.47477 0.184208 8.38265 0.136089 8.28264 0.117969L8.24046 0.110156C7.42639 -0.0367187 6.57014 -0.0367187 5.75608 0.110156L5.71389 0.117969C5.61389 0.136089 5.52176 0.184208 5.44976 0.255934C5.37775 0.32766 5.32928 0.419597 5.31077 0.519531L5.06389 1.85391C4.50278 2.06645 3.98025 2.36941 3.51702 2.75078L2.23733 2.29609C2.14165 2.26225 2.03794 2.25833 1.93998 2.28484C1.84202 2.31136 1.75444 2.36705 1.68889 2.44453L1.66077 2.47734C1.11975 3.11504 0.69792 3.8449 0.415457 4.63203L0.401395 4.67266C0.331082 4.86797 0.388895 5.08672 0.546707 5.22266L1.58264 6.10703C1.53421 6.40078 1.51077 6.70078 1.51077 6.99922C1.51077 7.29922 1.53421 7.59922 1.58264 7.89141L0.546707 8.77578C0.469513 8.84187 0.414264 8.92988 0.388307 9.02813C0.36235 9.12637 0.366915 9.23019 0.401395 9.32578L0.415457 9.36641C0.69827 10.1539 1.11702 10.8805 1.66077 11.5211L1.68889 11.5539C1.7546 11.6312 1.84218 11.6867 1.94009 11.7132C2.03799 11.7397 2.14162 11.7359 2.23733 11.7023L3.51702 11.2477C3.98265 11.6305 4.50296 11.9336 5.06389 12.1445L5.31077 13.4789C5.32928 13.5788 5.37775 13.6708 5.44976 13.7425C5.52176 13.8142 5.61389 13.8623 5.71389 13.8805L5.75608 13.8883C6.57762 14.0359 7.41891 14.0359 8.24046 13.8883L8.28264 13.8805C8.38265 13.8623 8.47477 13.8142 8.54678 13.7425C8.61878 13.6708 8.66726 13.5788 8.68577 13.4789L8.93108 12.1508C9.49648 11.9388 10.0229 11.6347 10.4889 11.2508L11.7592 11.7023C11.8549 11.7362 11.9586 11.7401 12.0566 11.7136C12.1545 11.6871 12.2421 11.6314 12.3076 11.5539L12.3358 11.5211C12.8795 10.8789 13.2983 10.1539 13.5811 9.36641L13.5951 9.32578C13.6655 9.13359 13.6076 8.91484 13.4498 8.77891ZM11.317 6.28203C11.3561 6.51797 11.3764 6.76016 11.3764 7.00234C11.3764 7.24453 11.3561 7.48672 11.317 7.72266L11.2139 8.34922L12.3811 9.34766C12.2041 9.7553 11.9808 10.1412 11.7155 10.4977L10.2655 9.98359L9.77483 10.3867C9.40139 10.693 8.98577 10.9336 8.53577 11.1023L7.94046 11.3258L7.66077 12.8414C7.21947 12.8914 6.77394 12.8914 6.33264 12.8414L6.05296 11.3227L5.46233 11.0961C5.01702 10.9273 4.60296 10.6867 4.23264 10.382L3.74202 9.97734L2.28264 10.4961C2.01702 10.1383 1.79514 9.75234 1.61702 9.34609L2.79671 8.33828L2.69514 7.71328C2.65764 7.48047 2.63733 7.23984 2.63733 7.00234C2.63733 6.76328 2.65608 6.52422 2.69514 6.29141L2.79671 5.66641L1.61702 4.65859C1.79358 4.25078 2.01702 3.86641 2.28264 3.50859L3.74202 4.02734L4.23264 3.62266C4.60296 3.31797 5.01702 3.07734 5.46233 2.90859L6.05452 2.68516L6.33421 1.16641C6.77327 1.11641 7.22171 1.11641 7.66233 1.16641L7.94202 2.68203L8.53733 2.90547C8.98577 3.07422 9.40296 3.31484 9.77639 3.62109L10.267 4.02422L11.717 3.51016C11.9826 3.86797 12.2045 4.25391 12.3826 4.66016L11.2155 5.65859L11.317 6.28203ZM6.99983 4.09609C5.48108 4.09609 4.24983 5.32734 4.24983 6.84609C4.24983 8.36484 5.48108 9.59609 6.99983 9.59609C8.51858 9.59609 9.74983 8.36484 9.74983 6.84609C9.74983 5.32734 8.51858 4.09609 6.99983 4.09609ZM8.23733 8.08359C8.07502 8.24637 7.88213 8.37545 7.66975 8.4634C7.45738 8.55136 7.2297 8.59645 6.99983 8.59609C6.53264 8.59609 6.09358 8.41328 5.76233 8.08359C5.59956 7.92128 5.47048 7.72839 5.38252 7.51601C5.29457 7.30364 5.24947 7.07596 5.24983 6.84609C5.24983 6.37891 5.43264 5.93984 5.76233 5.60859C6.09358 5.27734 6.53264 5.09609 6.99983 5.09609C7.46702 5.09609 7.90608 5.27734 8.23733 5.60859C8.40011 5.7709 8.52919 5.9638 8.61714 6.17617C8.7051 6.38855 8.75019 6.61622 8.74983 6.84609C8.74983 7.31328 8.56702 7.75234 8.23733 8.08359Z" fill="#161616"/>
</g>
</g>
<defs>
<clipPath id="clip0_1304_3522">
<rect width="14" height="14" fill="white"/>
</clipPath>
<clipPath id="clip1_1304_3522">
<rect width="14" height="14" fill="white"/>
</clipPath>
</defs>
</svg>
