<svg width="24" height="25" viewBox="0 0 24 25" fill="none" xmlns="http://www.w3.org/2000/svg">
<path fill-rule="evenodd" clip-rule="evenodd" d="M3.75 5C3.75 4.58579 4.08579 4.25 4.5 4.25H19.5C19.9142 4.25 20.25 4.58579 20.25 5V8.5C20.25 8.91421 20.5858 9.25 21 9.25C21.4142 9.25 21.75 8.91421 21.75 8.5V5C21.75 3.75736 20.7426 2.75 19.5 2.75H4.5C3.25736 2.75 2.25 3.75736 2.25 5V10C2.25 10.5763 2.46664 11.1019 2.82292 11.5C2.46664 11.8981 2.25 12.4237 2.25 13V18C2.25 19.2426 3.25736 20.25 4.5 20.25H9C9.41421 20.25 9.75 19.9142 9.75 19.5C9.75 19.0858 9.41421 18.75 9 18.75H4.5C4.08579 18.75 3.75 18.4142 3.75 18V13C3.75 12.5858 4.08579 12.25 4.5 12.25H9C9.41421 12.25 9.75 11.9142 9.75 11.5C9.75 11.0858 9.41421 10.75 9 10.75H4.5C4.08579 10.75 3.75 10.4142 3.75 10V5ZM7.25 7.01251C7.25 6.5983 6.91421 6.26251 6.5 6.26251C6.08579 6.26251 5.75 6.5983 5.75 7.01251V8.01251C5.75 8.42673 6.08579 8.76251 6.5 8.76251C6.91421 8.76251 7.25 8.42673 7.25 8.01251V7.01251ZM12.25 7.51251C12.25 7.0983 12.5858 6.76251 13 6.76251H18.0125C18.4267 6.76251 18.7625 7.0983 18.7625 7.51251C18.7625 7.92673 18.4267 8.26251 18.0125 8.26251H13C12.5858 8.26251 12.25 7.92673 12.25 7.51251ZM6.4873 14.2375C6.90152 14.2375 7.2373 14.5733 7.2373 14.9875V15.9875C7.2373 16.4018 6.90152 16.7375 6.4873 16.7375C6.07309 16.7375 5.7373 16.4018 5.7373 15.9875V14.9875C5.7373 14.5733 6.07309 14.2375 6.4873 14.2375ZM9.5 6.26251C9.91421 6.26251 10.25 6.5983 10.25 7.01251V8.01251C10.25 8.42673 9.91421 8.76251 9.5 8.76251C9.08579 8.76251 8.75 8.42673 8.75 8.01251V7.01251C8.75 6.5983 9.08579 6.26251 9.5 6.26251ZM16.7803 15.7197L15.5303 14.4697C15.2374 14.1768 14.7626 14.1768 14.4697 14.4697C14.1768 14.7626 14.1768 15.2374 14.4697 15.5303L15.1893 16.25L14.4697 16.9697C14.1768 17.2626 14.1768 17.7374 14.4697 18.0303C14.7626 18.3232 15.2374 18.3232 15.5303 18.0303L16.7803 16.7803C17.0732 16.4874 17.0732 16.0126 16.7803 15.7197ZM17.25 18C17.25 17.5858 17.5858 17.25 18 17.25H19C19.4142 17.25 19.75 17.5858 19.75 18C19.75 18.4142 19.4142 18.75 19 18.75H18C17.5858 18.75 17.25 18.4142 17.25 18ZM15 10.75C12.9289 10.75 11.25 12.4289 11.25 14.5V18.5C11.25 20.5711 12.9289 22.25 15 22.25H19C21.0711 22.25 22.75 20.5711 22.75 18.5V14.5C22.75 12.4289 21.0711 10.75 19 10.75H15ZM12.75 14.5C12.75 13.2574 13.7574 12.25 15 12.25H19C20.2426 12.25 21.25 13.2574 21.25 14.5V18.5C21.25 19.7426 20.2426 20.75 19 20.75H15C13.7574 20.75 12.75 19.7426 12.75 18.5V14.5Z" fill="#4B5162"/>
</svg>