<svg width="17" height="16" viewBox="0 0 17 16" fill="none" xmlns="http://www.w3.org/2000/svg">
<path d="M16.4689 7.45948L8.03589 0.140286C7.97116 0.0844821 7.88857 0.0532322 7.80152 0.0532322H5.82607C5.66089 0.0532322 5.585 0.258589 5.71 0.365732L13.527 7.15145H0.46446C0.366246 7.15145 0.285889 7.2318 0.285889 7.33002V8.6693C0.285889 8.76752 0.366246 8.84788 0.46446 8.84788H13.5247L5.70776 15.6336C5.58276 15.743 5.65866 15.9461 5.82384 15.9461H7.86625C7.90866 15.9461 7.95107 15.9305 7.98232 15.9014L16.4689 8.53984C16.5462 8.47264 16.6082 8.38965 16.6506 8.29646C16.6931 8.20328 16.715 8.10207 16.715 7.99966C16.715 7.89726 16.6931 7.79605 16.6506 7.70286C16.6082 7.60967 16.5462 7.52668 16.4689 7.45948Z" fill="#0F62FE"/>
</svg>