<svg width="37" height="40" viewBox="0 0 37 40" fill="none" xmlns="http://www.w3.org/2000/svg">
<path d="M34.4575 10.3583C32.8901 7.46409 30.6344 5.06129 27.9177 3.39206C25.1642 1.68304 22.1592 0.827576 18.9028 0.827576C15.6464 0.827576 12.6414 1.68304 9.88611 3.39206C7.13261 5.10108 4.95208 7.42442 3.34811 10.3583C1.74415 13.2921 0.941269 16.4958 0.941269 19.9655C0.941269 23.4352 1.74235 26.6389 3.34811 29.5728C4.91494 32.4674 7.17079 34.8703 9.88791 36.539C12.6414 38.248 15.6464 39.1034 18.9028 39.1034C22.1592 39.1034 25.1642 38.248 27.9195 36.539C30.6362 34.8697 32.8919 32.4669 34.4593 29.5728C36.0632 26.6389 36.8643 23.4352 36.8643 19.9655C36.8643 16.4958 36.0632 13.2921 34.4575 10.3583ZM18.9028 4.00447C22.4951 4.00447 25.6779 5.2293 28.4583 7.67704C26.8059 9.92384 24.3523 11.7726 21.0941 13.227C19.2944 9.75734 17.3437 6.85985 15.2369 4.53842C16.4309 4.18663 17.6639 4.00705 18.9028 4.00447ZM7.24577 10.0138C8.55918 8.23669 10.221 6.78669 12.1151 5.76516C14.2921 8.06363 16.2912 10.9324 18.1143 14.3772C14.522 15.5255 10.7249 16.0996 6.72488 16.0996C5.69569 16.0996 4.91795 16.0748 4.38988 16.0231C4.94036 13.8306 5.91293 11.7842 7.24577 10.0138ZM3.92288 19.9655C3.92288 19.8622 3.92827 19.7359 3.94084 19.5828C3.95342 19.4296 3.95881 19.3033 3.95881 19.2C4.41503 19.2268 5.11014 19.2383 6.04414 19.2383C10.8327 19.2383 15.2871 18.5359 19.4057 17.1331C19.7416 17.8469 20.0901 18.6507 20.4475 19.5445C18.0766 20.1052 15.6446 21.4698 13.1533 23.64C10.662 25.8102 8.84434 28.0934 7.6948 30.4914C5.18019 27.4542 3.92288 23.9462 3.92288 19.9655ZM18.9028 35.9266C15.5009 35.9266 12.4474 34.8032 9.74062 32.5602C10.8201 30.2885 12.478 28.1164 14.7178 26.0514C16.9558 23.9845 19.1776 22.6965 21.3815 22.1855C22.7717 26.2791 23.712 30.5306 24.1835 34.8548C22.5003 35.5556 20.71 35.919 18.9028 35.9266ZM31.6196 28.3479C30.4439 30.3661 28.8608 32.0797 26.9855 33.364C26.5544 29.3833 25.7282 25.504 24.5086 21.7262C26.1826 21.5999 27.6788 21.5348 28.999 21.5348C30.4341 21.5348 32.0273 21.5999 33.7749 21.7262C33.5405 24.0799 32.8032 26.345 31.6196 28.3479ZM29.3923 18.779C27.3088 18.779 25.3815 18.8689 23.6087 19.0469C23.2332 17.9996 22.8259 16.9656 22.3873 15.9465C26.0982 14.2126 28.7313 12.1075 30.2886 9.63103C32.444 12.3371 33.6187 15.4241 33.8091 18.8938C32.3506 18.8172 30.8778 18.779 29.3923 18.779Z" fill="#0F62FE"/>
</svg>
