<svg width="37" height="25" viewBox="0 0 37 25" fill="none" xmlns="http://www.w3.org/2000/svg">
<path d="M10.7129 0.967957C11.7709 0.967957 12.7228 1.06556 13.5958 1.26459C14.4633 1.46172 15.2033 1.78706 15.8284 2.2368C16.4445 2.68654 16.9258 3.28365 17.2725 4.03385C17.6084 4.77449 17.7754 5.70077 17.7754 6.79546C17.7754 7.98201 17.524 8.97336 17.0192 9.76375C16.5109 10.5561 15.7619 11.2048 14.7633 11.7063C16.123 12.1254 17.1306 12.8584 17.7988 13.8995C18.4705 14.9501 18.7992 16.2075 18.7992 17.6811C18.7992 18.8772 18.5855 19.9049 18.1562 20.7681C17.7425 21.6183 17.1424 22.3497 16.4068 22.9C15.6448 23.4654 14.7936 23.8803 13.8939 24.1249C12.9506 24.3887 11.9792 24.5212 11.0039 24.5191H0.289871V0.967957H10.7129ZM10.0825 10.4833C10.9447 10.4833 11.6595 10.2652 12.2235 9.82308C12.7839 9.38673 13.0551 8.66715 13.0551 7.68155C13.0551 7.1342 12.9635 6.68254 12.7839 6.32849C12.6089 5.98787 12.3499 5.70465 12.0349 5.50939C11.7052 5.30103 11.3413 5.16139 10.9626 5.09792C10.5498 5.0159 10.1306 4.9768 9.71069 4.98118H5.15745V10.4833H10.0825ZM10.3537 20.5097C10.8333 20.5097 11.2895 20.4657 11.7188 20.3623C12.1517 20.2628 12.536 20.1021 12.8629 19.8628C13.1898 19.6332 13.4593 19.3212 13.6532 18.9232C13.849 18.5289 13.9442 18.0141 13.9442 17.396C13.9442 16.1826 13.6227 15.3195 12.9869 14.797C12.3492 14.2803 11.4943 14.0239 10.4471 14.0239H5.15745V20.5116H10.3537V20.5097ZM25.7378 20.4312C26.397 21.1164 27.3471 21.4609 28.5829 21.4609C29.4684 21.4609 30.2335 21.2216 30.8784 20.747C31.5142 20.2705 31.9022 19.7614 32.0512 19.2351H35.922C35.3005 21.2867 34.3575 22.7527 33.0679 23.6349C31.7944 24.521 30.2443 24.9612 28.4338 24.9612C27.1729 24.9612 26.0377 24.7449 25.0211 24.3162C24.0453 23.9113 23.1635 23.2858 22.4364 22.4828C21.7214 21.6611 21.1686 20.6946 20.8109 19.6408C20.4177 18.4755 20.2231 17.2448 20.2361 16.0065C20.2361 14.732 20.4355 13.5397 20.8271 12.4392C21.1988 11.3755 21.7695 10.4034 22.5047 9.58194C23.2321 8.77815 24.0943 8.14468 25.0983 7.67963C26.1542 7.2065 27.2903 6.97064 28.4356 6.98684C29.7899 6.98684 30.9736 7.26625 31.9902 7.82891C32.976 8.36601 33.8309 9.14053 34.4868 10.091C35.1388 11.0345 35.604 12.1158 35.8932 13.3272C36.1824 14.5368 36.283 15.7999 36.2004 17.1223H24.6493C24.6511 18.4696 25.0768 19.7461 25.7378 20.4312ZM30.7885 11.4728C30.2659 10.8565 29.3822 10.5235 28.3009 10.5235C27.5986 10.5235 27.0184 10.6479 26.5514 10.9044C26.1244 11.1342 25.7456 11.4538 25.4378 11.844C25.1675 12.1983 24.9671 12.6071 24.8487 13.0459C24.7451 13.4118 24.6782 13.7884 24.6493 14.1693H31.8016C31.6974 12.9751 31.313 12.0928 30.7885 11.4728ZM23.7512 2.54875H32.7122V4.87401H23.7512V2.54875Z" fill="#0F62FE"/>
</svg>
