<svg width="20" height="20" viewBox="0 0 20 20" fill="none" xmlns="http://www.w3.org/2000/svg">
<path d="M19.5652 0H11.3043C11.0652 0 10.8696 0.195652 10.8696 0.434783V8.69565C10.8696 8.93478 11.0652 9.13043 11.3043 9.13043H19.5652C19.8043 9.13043 20 8.93478 20 8.69565V0.434783C20 0.195652 19.8043 0 19.5652 0ZM18.1522 7.28261H12.7174V1.84783H18.1522V7.28261ZM8.69565 10.8696H0.434783C0.195652 10.8696 0 11.0652 0 11.3043V19.5652C0 19.8043 0.195652 20 0.434783 20H8.69565C8.93478 20 9.13043 19.8043 9.13043 19.5652V11.3043C9.13043 11.0652 8.93478 10.8696 8.69565 10.8696ZM7.28261 18.1522H1.84783V12.7174H7.28261V18.1522ZM8.69565 0H0.434783C0.195652 0 0 0.195652 0 0.434783V8.69565C0 8.93478 0.195652 9.13043 0.434783 9.13043H8.69565C8.93478 9.13043 9.13043 8.93478 9.13043 8.69565V0.434783C9.13043 0.195652 8.93478 0 8.69565 0ZM7.28261 7.28261H1.84783V1.84783H7.28261V7.28261ZM19.5652 10.8696H11.3043C11.0652 10.8696 10.8696 11.0652 10.8696 11.3043V19.5652C10.8696 19.8043 11.0652 20 11.3043 20H19.5652C19.8043 20 20 19.8043 20 19.5652V11.3043C20 11.0652 19.8043 10.8696 19.5652 10.8696ZM18.1522 18.1522H12.7174V12.7174H18.1522V18.1522Z" fill="#8D8D8D"/>
</svg>
