<?xml version="1.0" encoding="UTF-8" standalone="no"?>
<svg
   width="21"
   height="21"
   viewBox="0 0 21 21"
   fill="none"
   version="1.1"
   id="svg1"
   sodipodi:docname="close-chat-bot-icon.svg"
   inkscape:version="1.3.2 (091e20e, 2023-11-25)"
   xmlns:inkscape="http://www.inkscape.org/namespaces/inkscape"
   xmlns:sodipodi="http://sodipodi.sourceforge.net/DTD/sodipodi-0.dtd"
   xmlns="http://www.w3.org/2000/svg"
   xmlns:svg="http://www.w3.org/2000/svg">
  <defs
     id="defs1" />
  <sodipodi:namedview
     id="namedview1"
     pagecolor="#ffffff"
     bordercolor="#000000"
     borderopacity="0.25"
     inkscape:showpageshadow="2"
     inkscape:pageopacity="0.0"
     inkscape:pagecheckerboard="0"
     inkscape:deskcolor="#d1d1d1"
     inkscape:zoom="11.238095"
     inkscape:cx="10.455509"
     inkscape:cy="10.411017"
     inkscape:window-width="1920"
     inkscape:window-height="1027"
     inkscape:window-x="0"
     inkscape:window-y="25"
     inkscape:window-maximized="0"
     inkscape:current-layer="svg1" />
  <path
     d="M 9.1481548,7.9983367 14.985467,0.96909348 C 15.083319,0.85227644 15.001038,0.674805 14.849833,0.674805 H 13.07529 c -0.104494,0 -0.204559,0.0471758 -0.273557,0.12804874 L 7.9873629,6.6010076 3.1730299,0.80285374 C 3.1063194,0.72198077 3.0062463,0.674805 2.8995095,0.674805 H 1.1249744 c -0.15121135,0 -0.23348956,0.17747144 -0.13564214,0.29428848 L 6.8266083,7.9983367 0.98933226,15.02755 c -0.0219215,0.02602 -0.0359823,0.05785 -0.0405184,0.0917 -0.004536,0.03392 6.4496e-4,0.06837 0.0149272,0.09937 0.0142822,0.03102 0.0370664,0.05718 0.0656471,0.07545 0.028581,0.01834 0.061751,0.02795 0.095586,0.02773 h 1.774535 c 0.1045156,0 0.2045813,-0.04719 0.2735204,-0.128001 L 7.9873626,9.3956241 12.801733,15.1938 c 0.06671,0.08082 0.166776,0.128001 0.273557,0.128001 h 1.774543 c 0.151205,0 0.233486,-0.177428 0.135634,-0.294247 z"
     fill="#E6F0FB"
     id="path1"
     style="fill:#6f6f6f;fill-opacity:1;stroke-width:0.741713" />
</svg>
