<svg width="21" height="21" viewBox="0 0 36 36" fill="none" xmlns="http://www.w3.org/2000/svg">
<path d="M20.0807 17.9982L30.6275 5.42629C30.8043 5.21736 30.6557 4.89995 30.3824 4.89995H27.1762C26.9874 4.89995 26.8066 4.98432 26.682 5.12897L17.9833 15.4991L9.28468 5.12897C9.16414 4.98432 8.98334 4.89995 8.79048 4.89995H5.58423C5.31102 4.89995 5.16236 5.21736 5.33914 5.42629L15.886 17.9982L5.33914 30.57C5.29954 30.6166 5.27414 30.6736 5.26594 30.7341C5.25775 30.7947 5.26711 30.8564 5.29291 30.9118C5.31872 30.9672 5.35988 31.0141 5.41152 31.0468C5.46316 31.0795 5.5231 31.0967 5.58423 31.0964H8.79048C8.97932 31.0964 9.16013 31.012 9.28468 30.8674L17.9833 20.4973L26.682 30.8674C26.8025 31.012 26.9833 31.0964 27.1762 31.0964H30.3824C30.6557 31.0964 30.8043 30.779 30.6275 30.57L20.0807 17.9982Z" fill="#525252" fill-opacity="1"/>
</svg>
