<svg width="31" height="38" viewBox="0 0 31 38" fill="none" xmlns="http://www.w3.org/2000/svg">
<path d="M12.2305 15.9962C11.257 15.9962 10.49 16.9053 10.49 18.0153C10.49 19.1215 11.2749 20.0343 12.2305 20.0343C13.2022 20.0343 13.9692 19.1215 13.9692 18.0153C13.9889 16.9034 13.2022 15.9962 12.2305 15.9962ZM18.4596 15.9962C17.486 15.9962 16.7191 16.9053 16.7191 18.0153C16.7191 19.1215 17.504 20.0343 18.4596 20.0343C19.4313 20.0343 20.1982 19.1215 20.1982 18.0153C20.1964 16.9034 19.4313 15.9962 18.4596 15.9962Z" fill="#525252"/>
<path d="M26.7524 0.741394H3.88557C3.42514 0.742649 2.96946 0.84052 2.54453 1.02942C2.1196 1.21832 1.73375 1.49454 1.40901 1.84232C1.08428 2.19011 0.827011 2.60264 0.651904 3.05636C0.476796 3.51008 0.387277 3.9961 0.388458 4.48669V29.0675C0.388458 31.1401 1.9583 32.8127 3.88557 32.8127H23.2355L22.3285 29.4464L24.5144 31.6109L26.5782 33.6472L30.2495 37.1035V4.48669C30.2507 3.9961 30.1612 3.51008 29.9861 3.05636C29.8109 2.60264 29.5537 2.19011 29.2289 1.84232C28.9042 1.49454 28.5184 1.21832 28.0934 1.02942C27.6685 0.84052 27.2128 0.742649 26.7524 0.741394ZM20.1641 24.4858C20.1641 24.4858 19.5498 23.705 19.0397 23.0103C21.2741 22.3366 22.1273 20.8477 22.1273 20.8477C21.4268 21.3376 20.7622 21.686 20.1641 21.9233C17.9866 22.8943 15.5886 23.1592 13.2705 22.6849C12.4139 22.5057 11.5746 22.243 10.763 21.9003C10.335 21.7271 9.91909 21.5218 9.5183 21.286C9.46622 21.2458 9.41592 21.2305 9.36563 21.1941C9.33873 21.1805 9.31485 21.1609 9.29558 21.1367C8.98844 20.9568 8.8178 20.8305 8.8178 20.8305C8.8178 20.8305 9.63685 22.285 11.8048 22.9758C11.2929 23.6648 10.6607 24.4858 10.6607 24.4858C6.89053 24.3576 5.459 21.7223 5.459 21.7223C5.459 15.868 7.91613 11.1237 7.91613 11.1237C10.3733 9.15826 12.7101 9.21376 12.7101 9.21376L12.8807 9.43193C9.80928 10.3793 8.39211 11.8146 8.39211 11.8146C8.39211 11.8146 8.76931 11.5964 9.39976 11.2883C11.2246 10.4348 12.6741 10.1974 13.2723 10.1419C13.3746 10.1247 13.4609 10.1056 13.5632 10.1056C16.5219 9.68076 19.5303 10.2799 22.1453 11.8146C22.1453 11.8146 20.7963 10.452 17.8956 9.50657L18.1344 9.21567C18.1344 9.21567 20.473 9.16017 22.9284 11.1256C22.9284 11.1256 25.3855 15.8699 25.3855 21.7242C25.3855 21.7242 23.936 24.3576 20.1641 24.4858Z" fill="#525252"/>
</svg>