<svg width="33" height="36" viewBox="0 0 33 36" fill="none" xmlns="http://www.w3.org/2000/svg">
<path d="M30.5977 0.741394H1.85927C1.3829 0.741394 0.926039 0.943025 0.589195 1.30193C0.252351 1.66084 0.0631142 2.14762 0.0631142 2.65519V33.2759C0.0631142 33.7835 0.252351 34.2702 0.589195 34.6291C0.926039 34.988 1.3829 35.1897 1.85927 35.1897H17.3331V21.8697H13.1337V16.6546H17.3331V12.827C17.3331 8.37743 19.8837 5.95265 23.6197 5.95265C24.8752 5.94883 26.1325 6.01772 27.3826 6.15743V10.7888H24.8051C22.7791 10.7888 22.3839 11.8184 22.3839 13.3246V16.645H27.2281L26.5995 21.8601H22.3821V35.1897H30.5977C31.0741 35.1897 31.5309 34.988 31.8678 34.6291C32.2046 34.2702 32.3939 33.7835 32.3939 33.2759V2.65519C32.3939 2.14762 32.2046 1.66084 31.8678 1.30193C31.5309 0.943025 31.0741 0.741394 30.5977 0.741394Z" fill="#0F62FE"/>
</svg>
