<svg width="32" height="32" viewBox="0 0 32 32" fill="none" xmlns="http://www.w3.org/2000/svg">
<path d="M15.9857 0.437562C7.15357 0.433991 0 7.58399 0 16.409C0 23.3876 4.475 29.3197 10.7071 31.4983C11.5464 31.709 11.4179 31.1126 11.4179 30.7054V27.9376C6.57143 28.5054 6.375 25.2983 6.05 24.7626C5.39286 23.6411 3.83929 23.3554 4.30357 22.8197C5.40714 22.2519 6.53214 22.9626 7.83571 24.8876C8.77857 26.284 10.6179 26.0483 11.55 25.8161C11.7536 24.9769 12.1893 24.2269 12.7893 23.6447C7.76786 22.7447 5.675 19.6804 5.675 16.0376C5.675 14.2697 6.25714 12.6447 7.4 11.334C6.67143 9.17328 7.46786 7.32328 7.575 7.04828C9.65 6.86256 11.8071 8.53399 11.975 8.66613C13.1536 8.34828 14.5 8.18042 16.0071 8.18042C17.5214 8.18042 18.8714 8.35542 20.0607 8.67685C20.4643 8.36971 22.4643 6.93399 24.3929 7.10899C24.4964 7.38399 25.275 9.19114 24.5893 11.3233C25.7464 12.6376 26.3357 14.2769 26.3357 16.0483C26.3357 19.6983 24.2286 22.7661 19.1929 23.6518C19.6242 24.076 19.9667 24.5819 20.2003 25.1399C20.4339 25.6979 20.554 26.2969 20.5536 26.9018V30.9197C20.5821 31.2411 20.5536 31.559 21.0893 31.559C27.4143 29.4269 31.9679 23.4519 31.9679 16.4126C31.9679 7.58399 24.8107 0.437562 15.9857 0.437562Z" fill="#096DD9"/>
</svg>
