<svg width="33" height="36" viewBox="0 0 33 36" fill="none" xmlns="http://www.w3.org/2000/svg">
<path d="M16.5755 9.11805C14.3728 9.11805 12.2603 10.0504 10.7027 11.71C9.14517 13.3696 8.27013 15.6204 8.27013 17.9674C8.27013 20.3144 9.14517 22.5653 10.7027 24.2249C12.2603 25.8845 14.3728 26.8168 16.5755 26.8168C18.7783 26.8168 20.8908 25.8845 22.4484 24.2249C24.0059 22.5653 24.881 20.3144 24.881 17.9674C24.881 15.6204 24.0059 13.3696 22.4484 11.71C20.8908 10.0504 18.7783 9.11805 16.5755 9.11805ZM16.5755 23.7146C15.1445 23.7146 13.7721 23.1089 12.7603 22.0307C11.7484 20.9525 11.1799 19.4903 11.1799 17.9655C11.1799 16.4408 11.7484 14.9785 12.7603 13.9003C13.7721 12.8222 15.1445 12.2165 16.5755 12.2165C18.0066 12.2165 19.379 12.8222 20.3908 13.9003C21.4027 14.9785 21.9712 16.4408 21.9712 17.9655C21.9712 19.4903 21.4027 20.9525 20.3908 22.0307C19.379 23.1089 18.0066 23.7146 16.5755 23.7146Z" fill="#525252"/>
<path d="M25.2097 10.8558C26.279 10.8558 27.1459 9.93211 27.1459 8.79271C27.1459 7.6533 26.279 6.72964 25.2097 6.72964C24.1403 6.72964 23.2734 7.6533 23.2734 8.79271C23.2734 9.93211 24.1403 10.8558 25.2097 10.8558Z" fill="#525252"/>
<path d="M31.9039 6.69519C31.4881 5.55109 30.8527 4.51209 30.0383 3.64471C29.2239 2.77734 28.2486 2.10069 27.1746 1.65808C25.9179 1.15544 24.5903 0.883651 23.2483 0.854291C21.5186 0.773911 20.9707 0.750946 16.5845 0.750946C12.1983 0.750946 11.6361 0.750946 9.9208 0.854291C8.57977 0.88215 7.25308 1.15399 5.998 1.65808C4.92379 2.10017 3.94817 2.77664 3.13374 3.64408C2.31931 4.51152 1.68405 5.55079 1.26873 6.69519C0.79689 8.0341 0.542392 9.44883 0.516142 10.8787C0.438908 12.7198 0.415558 13.3035 0.415558 17.9789C0.415558 22.6524 0.415558 23.2476 0.516142 25.0791C0.543085 26.5106 0.796342 27.923 1.26873 29.2646C1.68522 30.4085 2.32109 31.4474 3.13572 32.3147C3.95034 33.182 4.92581 33.8588 5.9998 34.3017C7.2525 34.8245 8.57974 35.1158 9.92439 35.1629C11.6541 35.2432 12.2019 35.2681 16.5881 35.2681C20.9743 35.2681 21.5365 35.2681 23.2519 35.1629C24.5938 35.1338 25.9213 34.8627 27.1782 34.361C28.2519 33.9174 29.227 33.2401 30.0413 32.3725C30.8555 31.5049 31.4911 30.466 31.9075 29.322C32.3799 27.9823 32.6332 26.5699 32.6601 25.1384C32.7373 23.2973 32.7607 22.7136 32.7607 18.0382C32.7607 13.3628 32.7607 12.7696 32.6601 10.9381C32.6392 9.48794 32.3834 8.05254 31.9039 6.69519ZM29.7162 24.9375C29.7046 26.0404 29.5157 27.133 29.1576 28.168C28.8879 28.9122 28.4749 29.588 27.9453 30.1519C27.4157 30.7159 26.7812 31.1555 26.0826 31.4425C25.1221 31.8222 24.1075 32.0236 23.083 32.0376C21.3767 32.1219 20.8953 32.1429 16.5199 32.1429C12.1408 32.1429 11.6936 32.1429 9.95493 32.0376C8.93099 32.0243 7.91688 31.8229 6.95715 31.4425C6.25609 31.1573 5.61902 30.7185 5.08715 30.1544C4.55529 29.5903 4.14048 28.9136 3.86956 28.168C3.51652 27.1442 3.32768 26.0644 3.31096 24.9738C3.23372 23.1557 3.21576 22.6428 3.21576 17.9808C3.21576 13.3169 3.21576 12.8404 3.31096 10.9859C3.32257 9.88361 3.51151 8.7916 3.86956 7.75734C4.41739 6.24736 5.53998 5.0589 6.95715 4.48093C7.91735 4.10227 8.93117 3.90098 9.95493 3.88574C11.6631 3.80345 12.1426 3.78048 16.5199 3.78048C20.8971 3.78048 21.3461 3.78048 23.083 3.88574C24.1076 3.89887 25.1223 4.10022 26.0826 4.48093C26.7812 4.76852 27.4156 5.20856 27.9451 5.7728C28.4747 6.33704 28.8877 7.01302 29.1576 7.75734C29.5106 8.78113 29.6995 9.86091 29.7162 10.9515C29.7934 12.7715 29.8132 13.2825 29.8132 17.9464C29.8132 22.6084 29.8132 23.1098 29.736 24.9394H29.7162V24.9375Z" fill="#525252"/>
</svg>
