<svg width="20" height="20" viewBox="0 0 20 20" fill="none" xmlns="http://www.w3.org/2000/svg">
<path d="M18.7497 2.13867H1.24974C1.15152 2.13867 1.07117 2.21903 1.07117 2.31724V3.74581C1.07117 3.84403 1.15152 3.92439 1.24974 3.92439H18.7497C18.848 3.92439 18.9283 3.84403 18.9283 3.74581V2.31724C18.9283 2.21903 18.848 2.13867 18.7497 2.13867ZM18.7497 16.0672H1.24974C1.15152 16.0672 1.07117 16.1476 1.07117 16.2458V17.6744C1.07117 17.7726 1.15152 17.853 1.24974 17.853H18.7497C18.848 17.853 18.9283 17.7726 18.9283 17.6744V16.2458C18.9283 16.1476 18.848 16.0672 18.7497 16.0672ZM18.7497 9.10296H1.24974C1.15152 9.10296 1.07117 9.18332 1.07117 9.28153V10.7101C1.07117 10.8083 1.15152 10.8887 1.24974 10.8887H18.7497C18.848 10.8887 18.9283 10.8083 18.9283 10.7101V9.28153C18.9283 9.18332 18.848 9.10296 18.7497 9.10296Z" fill="#8D8D8D"/>
</svg>
