<svg width="26" height="26" viewBox="0 0 26 26" fill="none" xmlns="http://www.w3.org/2000/svg">
<path d="M24.5 0.5H1.5C0.946875 0.5 0.5 0.946875 0.5 1.5V24.5C0.5 25.0531 0.946875 25.5 1.5 25.5H24.5C25.0531 25.5 25.5 25.0531 25.5 24.5V1.5C25.5 0.946875 25.0531 0.5 24.5 0.5ZM7.91562 21.8031H4.20625V9.87187H7.91562V21.8031ZM6.0625 8.24063C5.63727 8.24063 5.22159 8.11453 4.86802 7.87828C4.51446 7.64204 4.23889 7.30626 4.07616 6.91339C3.91343 6.52053 3.87085 6.08824 3.95381 5.67118C4.03677 5.25412 4.24154 4.87103 4.54222 4.57035C4.8429 4.26966 5.226 4.06489 5.64306 3.98194C6.06011 3.89898 6.49241 3.94156 6.88527 4.10428C7.27813 4.26701 7.61391 4.54258 7.85016 4.89615C8.0864 5.24971 8.2125 5.66539 8.2125 6.09062C8.20937 7.27812 7.24687 8.24063 6.0625 8.24063ZM21.8031 21.8031H18.0969V16C18.0969 14.6156 18.0719 12.8375 16.1688 12.8375C14.2406 12.8375 13.9438 14.3438 13.9438 15.9V21.8031H10.2406V9.87187H13.7969V11.5031H13.8469C14.3406 10.5656 15.55 9.575 17.3563 9.575C21.1125 9.575 21.8031 12.0469 21.8031 15.2594V21.8031Z" fill="#096DD9"/>
</svg>