<svg width="12" height="12" viewBox="0 0 12 12" fill="none" xmlns="http://www.w3.org/2000/svg">
<g clip-path="url(#clip0_93_57119)">
<path d="M10.7681 8.94708H9.82653C9.76225 8.94708 9.70198 8.9752 9.6618 9.02476C9.56805 9.1386 9.4676 9.24842 9.3618 9.35288C8.92907 9.78605 8.41649 10.1312 7.85243 10.3694C7.26804 10.6162 6.63993 10.7429 6.00555 10.7417C5.36403 10.7417 4.7426 10.6158 4.15868 10.3694C3.59461 10.1312 3.08203 9.78605 2.6493 9.35288C2.21579 8.92118 1.87013 8.4095 1.63144 7.84618C1.38368 7.26226 1.25912 6.64217 1.25912 6.00065C1.25912 5.35913 1.38501 4.73904 1.63144 4.15511C1.86984 3.59127 2.21269 3.08368 2.6493 2.64842C3.08591 2.21315 3.5935 1.87029 4.15868 1.6319C4.7426 1.38547 5.36403 1.25958 6.00555 1.25958C6.64707 1.25958 7.2685 1.38413 7.85243 1.6319C8.4176 1.87029 8.92519 2.21315 9.3618 2.64842C9.4676 2.75422 9.56671 2.86404 9.6618 2.97654C9.70198 3.02609 9.76359 3.05422 9.82653 3.05422H10.7681C10.8524 3.05422 10.9047 2.96047 10.8578 2.88949C9.83055 1.29306 8.03323 0.236362 5.99082 0.241719C2.78189 0.249755 0.209122 2.85467 0.241265 6.05958C0.273408 9.2136 2.84216 11.7596 6.00555 11.7596C8.0426 11.7596 9.83189 10.7042 10.8578 9.11181C10.9033 9.04083 10.8524 8.94708 10.7681 8.94708ZM11.9587 5.91627L10.0582 4.41627C9.98725 4.36002 9.88412 4.41092 9.88412 4.50065V5.51851H5.67877C5.61984 5.51851 5.57162 5.56672 5.57162 5.62565V6.37565C5.57162 6.43458 5.61984 6.48279 5.67877 6.48279H9.88412V7.50065C9.88412 7.59038 9.98859 7.64127 10.0582 7.58502L11.9587 6.08502C11.9715 6.075 11.9818 6.0622 11.989 6.04758C11.9961 6.03296 11.9998 6.01691 11.9998 6.00065C11.9998 5.98439 11.9961 5.96834 11.989 5.95372C11.9818 5.9391 11.9715 5.9263 11.9587 5.91627Z" fill="#525252"/>
</g>
<defs>
<clipPath id="clip0_93_57119">
<rect width="12" height="12" fill="white"/>
</clipPath>
</defs>
</svg>
