<svg width="18" height="18" viewBox="0 0 18 18" fill="none" xmlns="http://www.w3.org/2000/svg">
<path d="M3.3234 14.356C3.36804 14.356 3.41269 14.3516 3.45733 14.3449L7.21179 13.6864C7.25643 13.6775 7.29885 13.6574 7.3301 13.6239L16.7921 4.16183C16.8128 4.14118 16.8293 4.11665 16.8405 4.08965C16.8517 4.06265 16.8574 4.0337 16.8574 4.00446C16.8574 3.97523 16.8517 3.94628 16.8405 3.91928C16.8293 3.89228 16.8128 3.86775 16.7921 3.8471L13.0823 0.135045C13.0399 0.092634 12.9841 0.0703125 12.9238 0.0703125C12.8636 0.0703125 12.8078 0.092634 12.7654 0.135045L3.30331 9.5971C3.26983 9.63058 3.24974 9.67076 3.24081 9.7154L2.58233 13.4699C2.56061 13.5894 2.56837 13.7125 2.60493 13.8284C2.64149 13.9443 2.70575 14.0496 2.79215 14.135C2.93947 14.2779 3.12474 14.356 3.3234 14.356ZM4.82786 10.4632L12.9238 2.36942L14.56 4.00558L6.46402 12.0993L4.47965 12.4498L4.82786 10.4632ZM17.214 16.231H0.785453C0.390363 16.231 0.071167 16.5502 0.071167 16.9453V17.7489C0.071167 17.8471 0.151524 17.9275 0.249738 17.9275H17.7497C17.848 17.9275 17.9283 17.8471 17.9283 17.7489V16.9453C17.9283 16.5502 17.6091 16.231 17.214 16.231Z" fill="#8D8D8D"/>
</svg>
