<svg width="16" height="15" viewBox="0 0 16 15" fill="none" xmlns="http://www.w3.org/2000/svg">
<path d="M15.0733 5.16385L10.5394 4.50492L8.5126 0.395989C8.45725 0.283489 8.36617 0.192417 8.25367 0.13706C7.97153 -0.00222553 7.62867 0.113846 7.4876 0.395989L5.46082 4.50492L0.926889 5.16385C0.801889 5.1817 0.687603 5.24063 0.600103 5.32992C0.494321 5.43864 0.43603 5.58492 0.438039 5.7366C0.440048 5.88828 0.502192 6.03296 0.610817 6.13885L3.89117 9.33706L3.11617 13.8531C3.098 13.9582 3.10963 14.0662 3.14973 14.165C3.18984 14.2638 3.25682 14.3494 3.34308 14.412C3.42935 14.4747 3.53144 14.5119 3.63778 14.5195C3.74412 14.5271 3.85047 14.5047 3.94475 14.4549L8.0001 12.3228L12.0555 14.4549C12.1662 14.5138 12.2947 14.5335 12.418 14.5121C12.7287 14.4585 12.9376 14.1638 12.884 13.8531L12.109 9.33706L15.3894 6.13885C15.4787 6.05135 15.5376 5.93706 15.5555 5.81206C15.6037 5.49956 15.3858 5.21027 15.0733 5.16385ZM10.7287 8.88706L11.3733 12.6424L8.0001 10.871L4.62689 12.6442L5.27153 8.88885L2.54296 6.22813L6.31439 5.67992L8.0001 2.26385L9.68582 5.67992L13.4572 6.22813L10.7287 8.88706Z" fill="#096DD9"/>
</svg>
