<svg width="16" height="16" viewBox="0 0 16 16" fill="none" xmlns="http://www.w3.org/2000/svg">
<path d="M9.15615 7.99895L15.0155 1.01458C15.1137 0.898507 15.0312 0.722168 14.8794 0.722168H13.0981C12.9932 0.722168 12.8928 0.769043 12.8236 0.8494L7.99097 6.61056L3.15838 0.8494C3.09142 0.769043 2.99097 0.722168 2.88383 0.722168H1.10258C0.950793 0.722168 0.868203 0.898507 0.966418 1.01458L6.82579 7.99895L0.966418 14.9833C0.944417 15.0092 0.930302 15.0408 0.92575 15.0745C0.921197 15.1082 0.926397 15.1424 0.940733 15.1732C0.955069 15.204 0.977939 15.23 1.00663 15.2482C1.03532 15.2664 1.06862 15.2759 1.10258 15.2757H2.88383C2.98874 15.2757 3.08919 15.2289 3.15838 15.1485L7.99097 9.38735L12.8236 15.1485C12.8905 15.2289 12.991 15.2757 13.0981 15.2757H14.8794C15.0312 15.2757 15.1137 15.0994 15.0155 14.9833L9.15615 7.99895Z" fill="#DA1E28"/>
</svg>
