<svg width="24" height="25" viewBox="0 0 24 25" fill="none" xmlns="http://www.w3.org/2000/svg">
<path fill-rule="evenodd" clip-rule="evenodd" d="M13.25 3.5C13.25 3.08579 13.5858 2.75 14 2.75H18C20.0711 2.75 21.75 4.42893 21.75 6.5V9.5C21.75 9.91421 21.4142 10.25 21 10.25C20.5858 10.25 20.25 9.91421 20.25 9.5V6.5C20.25 5.25736 19.2426 4.25 18 4.25H14C13.5858 4.25 13.25 3.91421 13.25 3.5ZM3 13.75C3.41421 13.75 3.75 14.0858 3.75 14.5V18.5C3.75 19.7426 4.75736 20.75 6 20.75H9C9.41421 20.75 9.75 21.0858 9.75 21.5C9.75 21.9142 9.41421 22.25 9 22.25H6C3.92893 22.25 2.25 20.5711 2.25 18.5V14.5C2.25 14.0858 2.58579 13.75 3 13.75ZM3.27827 2.75C2.73096 2.75 2.28262 3.18472 2.26575 3.73177C2.24887 4.27881 2.66957 4.74034 3.21583 4.77407C3.25742 4.77664 3.29912 4.77664 3.3407 4.77407C3.88697 4.74034 4.30766 4.27881 4.29079 3.73177C4.27391 3.18472 3.82557 2.75 3.27827 2.75ZM6.48064 2.75074C6.89471 2.74005 7.23906 3.06705 7.24975 3.48113C7.30913 5.77951 5.49406 7.69085 3.19568 7.75024C3.124 7.7521 3.0523 7.7521 2.98061 7.75024C2.56654 7.73953 2.23955 7.39518 2.25026 6.9811C2.26097 6.56703 2.60532 6.24003 3.0194 6.25074C3.06524 6.25193 3.11107 6.25193 3.15689 6.25074L3.15692 6.25074C4.62716 6.21276 5.78824 4.9901 5.75026 3.51986C5.73956 3.10579 6.06656 2.76144 6.48064 2.75074ZM10.75 3.50516C10.7526 3.09096 10.4189 2.75309 10.0047 2.7505C9.59047 2.74792 9.2526 3.08161 9.25002 3.49581C9.24528 4.25595 9.11542 5.01011 8.86564 5.72805L8.86534 5.72893C8.27435 7.43446 6.93397 8.77484 5.22844 9.36583L5.22822 9.3659C4.50967 9.61514 3.75516 9.74506 2.99463 9.75051C2.58043 9.75347 2.24705 10.0917 2.25002 10.5059C2.25299 10.9201 2.59117 11.2534 3.00537 11.2505C3.92962 11.2438 4.84655 11.086 5.71978 10.7831C7.8594 10.0416 9.54097 8.36008 10.2825 6.22049C10.5863 5.34717 10.7442 4.42979 10.75 3.50516ZM13.25 15.3936C13.2616 15.3772 13.2868 15.3473 13.3375 15.3045C13.4715 15.1913 13.71 15.0556 14.0703 14.927C14.7843 14.672 15.82 14.5 17 14.5C18.18 14.5 19.2157 14.672 19.9297 14.927C20.29 15.0556 20.5285 15.1913 20.6625 15.3045C20.7132 15.3473 20.7384 15.3772 20.75 15.3936V16.6064C20.7384 16.6229 20.7132 16.6527 20.6625 16.6955C20.5285 16.8087 20.29 16.9444 19.9297 17.0731C19.2157 17.328 18.18 17.5 17 17.5C15.82 17.5 14.7843 17.328 14.0703 17.0731C13.71 16.9444 13.4715 16.8087 13.3375 16.6955C13.2868 16.6527 13.2616 16.6229 13.25 16.6064V15.3936ZM11.75 16.6429V15.3571C11.75 14.8289 12.0518 14.4269 12.3698 14.1585C12.6911 13.8871 13.1117 13.6765 13.5658 13.5143C14.4804 13.1877 15.6947 13 17 13C18.3053 13 19.5196 13.1877 20.4342 13.5143C20.8883 13.6765 21.3089 13.8871 21.6302 14.1585C21.9482 14.4269 22.25 14.8289 22.25 15.3571V16.6429V20.1429C22.25 20.6711 21.9482 21.0731 21.6302 21.3415C21.3089 21.6129 20.8883 21.8235 20.4342 21.9857C19.5196 22.3123 18.3053 22.5 17 22.5C15.6947 22.5 14.4804 22.3123 13.5658 21.9857C13.1117 21.8235 12.6911 21.6129 12.3698 21.3415C12.0518 21.0731 11.75 20.6711 11.75 20.1429V16.6429ZM20.75 18.3623V20.1064C20.7384 20.1228 20.7132 20.1527 20.6625 20.1955C20.5285 20.3087 20.29 20.4444 19.9297 20.573C19.2157 20.828 18.18 21 17 21C15.82 21 14.7843 20.828 14.0703 20.573C13.71 20.4444 13.4715 20.3087 13.3375 20.1955C13.2868 20.1527 13.2616 20.1228 13.25 20.1064V18.3623C13.3528 18.4062 13.4584 18.4473 13.5658 18.4857C14.4804 18.8123 15.6947 19 17 19C18.3053 19 19.5196 18.8123 20.4342 18.4857C20.5416 18.4473 20.6472 18.4062 20.75 18.3623Z" fill="#4B5162"/>
</svg>
