<svg width="150" height="28" viewBox="0 0 150 28" fill="none" xmlns="http://www.w3.org/2000/svg">
<g clip-path="url(#clip0_335_11108)">
<path d="M36.4972 1.1897H40.2256V21.5261H46.3604V24.9156H36.4972V1.1897Z" fill="#626981"/>
<path d="M53.4055 25.2545C51.5752 25.2545 50.1743 24.7348 49.2026 23.6953C48.231 22.6559 47.7452 21.1872 47.7452 19.2891V6.81608C47.7452 4.91801 48.231 3.44926 49.2026 2.40984C50.1743 1.37042 51.5752 0.850708 53.4055 0.850708C55.2358 0.850708 56.6367 1.37042 57.6084 2.40984C58.58 3.44926 59.0658 4.91801 59.0658 6.81608V19.2891C59.0658 21.1872 58.58 22.6559 57.6084 23.6953C56.6367 24.7348 55.2358 25.2545 53.4055 25.2545ZM53.4055 21.8651C54.6935 21.8651 55.3375 21.0855 55.3375 19.5263V6.57882C55.3375 5.01968 54.6935 4.24012 53.4055 4.24012C52.1175 4.24012 51.4735 5.01968 51.4735 6.57882V19.5263C51.4735 21.0855 52.1175 21.8651 53.4055 21.8651Z" fill="#626981"/>
<path d="M66.8752 25.2545C65.0675 25.2545 63.6892 24.7461 62.74 23.7292C61.791 22.6899 61.3165 21.2098 61.3165 19.2891V6.81608C61.3165 4.89541 61.791 3.42666 62.74 2.40984C63.6892 1.37042 65.0675 0.850708 66.8752 0.850708C68.6829 0.850708 70.0612 1.37042 71.0102 2.40984C71.9593 3.42666 72.4338 4.89541 72.4338 6.81608V8.84972H68.9088V6.57882C68.9088 5.01968 68.2648 4.24012 66.9768 4.24012C65.6889 4.24012 65.0449 5.01968 65.0449 6.57882V19.5603C65.0449 21.0969 65.6889 21.8651 66.9768 21.8651C68.2648 21.8651 68.9088 21.0969 68.9088 19.5603V14.9168H67.0447V11.5274H72.4338V19.2891C72.4338 21.2098 71.9593 22.6899 71.0102 23.7292C70.0612 24.7461 68.6829 25.2545 66.8752 25.2545Z" fill="#626981"/>
<path d="M80.2162 25.2545C78.386 25.2545 76.985 24.7348 76.0134 23.6953C75.0418 22.6559 74.556 21.1872 74.556 19.2891V6.81608C74.556 4.91801 75.0418 3.44926 76.0134 2.40984C76.985 1.37042 78.386 0.850708 80.2162 0.850708C82.0466 0.850708 83.4475 1.37042 84.4191 2.40984C85.3908 3.44926 85.8766 4.91801 85.8766 6.81608V19.2891C85.8766 21.1872 85.3908 22.6559 84.4191 23.6953C83.4475 24.7348 82.0466 25.2545 80.2162 25.2545ZM80.2162 21.8651C81.5042 21.8651 82.1482 21.0855 82.1482 19.5263V6.57882C82.1482 5.01968 81.5042 4.24012 80.2162 4.24012C78.9283 4.24012 78.2843 5.01968 78.2843 6.57882V19.5263C78.2843 21.0855 78.9283 21.8651 80.2162 21.8651Z" fill="#626981"/>
<path d="M88.4054 1.1897H92.1338V24.9156H88.4054V1.1897Z" fill="#626981"/>
<path d="M94.9259 1.1897H100.417C102.269 1.1897 103.659 1.68681 104.586 2.68104C105.513 3.67527 105.976 5.13271 105.976 7.05338V9.39206C105.976 11.3128 105.513 12.7702 104.586 13.7645C103.659 14.7586 102.269 15.2557 100.417 15.2557H98.6546V24.9156H94.9259V1.1897ZM100.417 11.8663C101.027 11.8663 101.479 11.6968 101.773 11.3579C102.089 11.019 102.247 10.4428 102.247 9.62932V6.81613C102.247 6.00266 102.089 5.42646 101.773 5.08752C101.479 4.74858 101.027 4.57912 100.417 4.57912H98.6546V11.8663H100.417Z" fill="#626981"/>
<path d="M112.979 25.2545C111.172 25.2545 109.805 24.7461 108.878 23.7292C107.952 22.6899 107.488 21.2098 107.488 19.2891V17.9333H111.013V19.5603C111.013 21.0969 111.657 21.8651 112.945 21.8651C113.578 21.8651 114.052 21.6843 114.369 21.3228C114.708 20.9387 114.877 20.3285 114.877 19.4925C114.877 18.4983 114.652 17.6283 114.2 16.8827C113.748 16.1143 112.912 15.1992 111.691 14.1372C110.155 12.7814 109.081 11.5613 108.471 10.4766C107.862 9.36943 107.556 8.12665 107.556 6.74829C107.556 4.87282 108.031 3.42666 108.98 2.40984C109.929 1.37042 111.307 0.850708 113.115 0.850708C114.9 0.850708 116.245 1.37042 117.148 2.40984C118.075 3.42666 118.538 4.89541 118.538 6.81608V7.79901H115.013V6.57882C115.013 5.76536 114.855 5.17786 114.539 4.81632C114.222 4.43219 113.759 4.24012 113.149 4.24012C111.906 4.24012 111.285 4.99709 111.285 6.51103C111.285 7.36968 111.511 8.17184 111.963 8.91751C112.437 9.66315 113.284 10.567 114.505 11.629C116.064 12.9848 117.137 14.2163 117.725 15.3235C118.312 16.4307 118.606 17.7299 118.606 19.2213C118.606 21.1646 118.12 22.6559 117.148 23.6953C116.199 24.7348 114.809 25.2545 112.979 25.2545Z" fill="#626981"/>
<path d="M126.167 25.2545C124.36 25.2545 122.981 24.7461 122.032 23.7293C121.083 22.6899 120.609 21.2098 120.609 19.2891V1.1897H124.337V19.5604C124.337 20.3738 124.495 20.9613 124.811 21.3229C125.15 21.6843 125.625 21.8651 126.235 21.8651C126.845 21.8651 127.308 21.6843 127.624 21.3229C127.963 20.9613 128.133 20.3738 128.133 19.5604V1.1897H131.725V19.2891C131.725 21.2098 131.251 22.6899 130.302 23.7293C129.353 24.7461 127.974 25.2545 126.167 25.2545Z" fill="#626981"/>
<path d="M134.38 1.1897H139.702L142.074 18.1706H142.142L144.515 1.1897H149.836V24.9156H146.311V6.9517H146.244L143.531 24.9156H140.413L137.702 6.9517H137.635V24.9156H134.38V1.1897Z" fill="#626981"/>
<path d="M0.503052 24.9156C5.0899 24.9156 8.80823 21.1972 8.80823 16.6104C8.80823 12.0235 5.0899 8.30518 0.503052 8.30518V14.1188C1.87909 14.1188 2.99459 15.2343 2.99459 16.6104C2.99459 17.9864 1.87909 19.1019 0.503052 19.1019V24.9156Z" fill="#626981"/>
<path d="M28.1875 11.0736C26.7683 10.624 25.2569 10.3815 23.6888 10.3815C15.4707 10.3815 8.80872 17.0436 8.80872 25.2616C8.80872 26.0865 8.87584 26.8957 9.00488 27.684H18.2504C17.9203 26.944 17.7369 26.1243 17.7369 25.2616C17.7369 21.9744 20.4016 19.3096 23.6888 19.3096C25.4855 19.3096 27.0961 20.1056 28.1875 21.3642V11.0736Z" fill="#626981"/>
<path d="M1.96301 0C2.65157 6.22882 7.93242 11.0736 14.3448 11.0736C20.7571 11.0736 26.038 6.22882 26.7265 0H17.8173C17.2673 1.37881 15.9198 2.35313 14.3448 2.35313C12.7697 2.35313 11.4222 1.37881 10.8721 0H1.96301Z" fill="#626981"/>
</g>
<defs>
<clipPath id="clip0_335_11108">
<rect width="149.333" height="28" fill="white" transform="translate(0.503052)"/>
</clipPath>
</defs>
</svg>
