<svg width="141" height="36" viewBox="0 0 141 36" fill="none" xmlns="http://www.w3.org/2000/svg">
<path d="M42.3151 11.3288H45.6901V24.975H42.3151V11.3288ZM47.0289 19.8225C47.0289 16.4475 49.0989 14.4338 52.2939 14.4338C55.4889 14.4338 57.5589 16.4475 57.5589 19.8225C57.5589 23.1975 55.5339 25.2225 52.2939 25.2225C49.0539 25.2225 47.0289 23.2538 47.0289 19.8225ZM54.1726 19.8225C54.1726 17.9663 53.4414 16.875 52.2939 16.875C51.1464 16.875 50.4264 18 50.4264 19.8225C50.4264 21.645 51.1351 22.7475 52.2939 22.7475C53.4526 22.7475 54.1726 21.7125 54.1726 19.8338V19.8225ZM58.8301 25.6388H62.0701C62.2243 25.9813 62.485 26.2649 62.8134 26.4474C63.1418 26.6298 63.5203 26.7013 63.8926 26.6513C65.1751 26.6513 65.8501 25.9538 65.8501 24.9413V23.0513H65.7826C65.5137 23.6305 65.0773 24.1159 64.5299 24.4448C63.9825 24.7736 63.349 24.9309 62.7114 24.8963C60.2476 24.8963 58.6164 23.0175 58.6164 19.7888C58.6164 16.56 60.1689 14.5238 62.7564 14.5238C63.414 14.498 64.0638 14.6738 64.6188 15.0277C65.1738 15.3816 65.6073 15.8966 65.8614 16.5038V14.625H69.2364V24.8625C69.2364 27.3263 67.0651 28.8563 63.8589 28.8563C60.8776 28.8563 59.0214 27.5175 58.8301 25.65V25.6388ZM65.8614 19.8113C65.8614 18.1688 65.1076 17.1338 63.9151 17.1338C62.7226 17.1338 61.9914 18.1575 61.9914 19.8113C61.9914 21.465 62.7114 22.3988 63.9151 22.3988C65.1189 22.3988 65.8614 21.4875 65.8614 19.8225V19.8113ZM70.5076 19.8113C70.5076 16.4363 72.5776 14.4225 75.7726 14.4225C78.9676 14.4225 81.0489 16.4363 81.0489 19.8113C81.0489 23.1863 79.0239 25.2113 75.7726 25.2113C72.5214 25.2113 70.5076 23.2538 70.5076 19.8225V19.8113ZM77.6514 19.8113C77.6514 17.955 76.9201 16.8638 75.7726 16.8638C74.6251 16.8638 73.9614 18 73.9614 19.8338C73.9614 21.6675 74.6701 22.7588 75.8176 22.7588C76.9651 22.7588 77.6514 21.7125 77.6514 19.8338V19.8113ZM82.3314 12.1725C82.3225 11.8318 82.4151 11.4961 82.5972 11.208C82.7794 10.9198 83.043 10.6923 83.3547 10.5542C83.6663 10.4161 84.0119 10.3736 84.3477 10.4322C84.6835 10.4908 84.9943 10.6477 85.2408 10.8831C85.4874 11.1186 85.6584 11.4219 85.7323 11.7547C85.8063 12.0875 85.7797 12.4346 85.656 12.7523C85.5323 13.0699 85.3171 13.3438 85.0377 13.5389C84.7583 13.7341 84.4271 13.842 84.0864 13.8488C83.8605 13.8643 83.6338 13.8329 83.4206 13.7566C83.2073 13.6804 83.0122 13.5609 82.8474 13.4055C82.6826 13.2503 82.5516 13.0625 82.4629 12.8542C82.374 12.6459 82.3292 12.4215 82.3314 12.195V12.1725ZM82.3314 14.6475H85.7064V24.975H82.3314V14.6475ZM97.9576 19.8113C97.9576 23.1863 96.4614 25.11 93.8964 25.11C93.2387 25.1522 92.5838 24.9914 92.0204 24.6494C91.457 24.3073 91.0123 23.8005 90.7464 23.1975H90.6789V28.2825H87.3039V14.625H90.6789V16.47H90.7464C90.9999 15.857 91.4362 15.337 91.9958 14.9807C92.5554 14.6245 93.2111 14.4492 93.8739 14.4788C96.4614 14.5238 98.0026 16.4588 98.0026 19.8338L97.9576 19.8113ZM94.5826 19.8113C94.5826 18.1688 93.8289 17.1225 92.6476 17.1225C91.4664 17.1225 90.7126 18.18 90.7014 19.8113C90.6901 21.4425 91.4664 22.4888 92.6476 22.4888C93.8289 22.4888 94.5826 21.465 94.5826 19.8338V19.8113ZM103.751 14.4113C106.553 14.4113 108.251 15.7388 108.33 17.865H105.259C105.259 17.1338 104.651 16.6725 103.718 16.6725C102.784 16.6725 102.368 17.0325 102.368 17.5613C102.368 18.09 102.739 18.2588 103.493 18.4163L105.653 18.855C107.711 19.2938 108.589 20.1263 108.589 21.69C108.589 23.8275 106.643 25.2 103.774 25.2C100.905 25.2 99.0264 23.8275 98.8801 21.7238H102.131C102.233 22.4888 102.84 22.9388 103.83 22.9388C104.82 22.9388 105.27 22.6125 105.27 22.0725C105.27 21.5325 104.955 21.42 104.145 21.2513L102.199 20.835C100.185 20.4188 99.1276 19.35 99.1276 17.775C99.1501 15.75 100.961 14.4338 103.751 14.4338V14.4113ZM119.85 24.9525H116.599V23.0288H116.531C116.352 23.6746 115.959 24.2399 115.414 24.6309C114.87 25.0217 114.208 25.2146 113.539 25.1775C113.026 25.2067 112.513 25.1254 112.034 24.9392C111.556 24.7531 111.123 24.4664 110.764 24.0984C110.406 23.7305 110.131 23.2899 109.957 22.8065C109.784 22.3231 109.716 21.808 109.759 21.2963V14.625H113.134V20.52C113.134 21.7463 113.764 22.3988 114.81 22.3988C115.055 22.3992 115.298 22.3474 115.522 22.2464C115.745 22.1455 115.945 21.9979 116.107 21.8137C116.268 21.6293 116.39 21.4125 116.46 21.1778C116.531 20.943 116.553 20.6957 116.52 20.4525V14.625H119.895L119.85 24.9525ZM121.481 14.625H124.744V16.6163H124.811C124.99 15.979 125.376 15.4189 125.907 15.0241C126.438 14.6292 127.086 14.4215 127.748 14.4338C128.421 14.3799 129.09 14.5814 129.622 14.9983C130.153 15.4152 130.508 16.0169 130.616 16.6838H130.684C130.887 16.0098 131.31 15.423 131.885 15.0156C132.459 14.6083 133.153 14.4035 133.856 14.4338C134.315 14.4184 134.772 14.4997 135.197 14.6725C135.624 14.8452 136.007 15.1056 136.326 15.4366C136.644 15.7677 136.889 16.162 137.046 16.5939C137.201 17.0258 137.265 17.4858 137.231 17.9438V24.975H133.856V18.8438C133.856 17.7188 133.35 17.2013 132.405 17.2013C132.195 17.1995 131.985 17.2429 131.793 17.3286C131.601 17.4143 131.429 17.5403 131.289 17.6982C131.15 17.856 131.045 18.0419 130.983 18.2434C130.921 18.445 130.904 18.6574 130.931 18.8663V24.975H127.725V18.7988C127.725 17.7638 127.219 17.2013 126.296 17.2013C126.084 17.2014 125.872 17.2466 125.679 17.334C125.484 17.4215 125.31 17.5492 125.169 17.7086C125.027 17.8681 124.922 18.0557 124.857 18.2592C124.794 18.4626 124.774 18.6772 124.8 18.8888V24.975H121.425L121.481 14.625Z" fill="#626981"/>
<path d="M32.8767 11.9475C32.3041 10.6384 31.5465 9.41842 30.6267 8.325C29.2671 6.66038 27.5704 5.30256 25.6482 4.34093C23.726 3.3793 21.6219 2.83564 19.4745 2.74574C17.3271 2.65584 15.185 3.02174 13.1892 3.81936C11.1934 4.61698 9.3891 5.82823 7.89513 7.3734C6.40115 8.91855 5.25135 10.7626 4.52139 12.7842C3.79143 14.8057 3.49786 16.9589 3.66002 19.1021C3.82219 21.2453 4.43638 23.3298 5.4622 25.2185C6.48802 27.1072 7.90221 28.7573 9.61167 30.06C10.7085 30.9126 11.9206 31.6058 13.2117 32.1188C15.0218 32.8606 16.9591 33.2426 18.9154 33.2438C22.9535 33.2349 26.8233 31.6252 29.6766 28.7677C32.5298 25.9102 34.1337 22.0381 34.1367 18C34.1396 15.9171 33.7106 13.8562 32.8767 11.9475ZM18.9042 5.83874C20.661 5.83856 22.3965 6.22252 23.9892 6.96374C23.6008 7.13156 23.1924 7.24877 22.7742 7.3125C21.3978 7.51173 20.1229 8.1507 19.1395 9.13407C18.1561 10.1174 17.5171 11.3924 17.3179 12.7688C17.2305 13.5406 16.8794 14.2587 16.324 14.8019C15.7686 15.345 15.0428 15.6798 14.2692 15.75C12.8928 15.9492 11.6178 16.5882 10.6345 17.5716C9.65113 18.555 9.01214 19.8299 8.81292 21.2063C8.74546 21.9402 8.43232 22.6299 7.92417 23.1638C7.0474 21.3112 6.65353 19.2669 6.77922 17.2212C6.9049 15.1755 7.54605 13.1948 8.64301 11.4634C9.73995 9.73214 11.2571 8.30645 13.0531 7.31907C14.8492 6.33169 16.8659 5.81472 18.9154 5.81624L18.9042 5.83874ZM9.60042 25.875C9.73542 25.7513 9.87042 25.6388 10.0054 25.5038C11.0063 24.5334 11.6487 23.2525 11.8279 21.87C11.9006 21.0929 12.2475 20.367 12.8067 19.8225C13.3447 19.2625 14.0689 18.9183 14.8429 18.855C16.2192 18.6558 17.4942 18.0168 18.4776 17.0334C19.4609 16.05 20.0999 14.7751 20.2992 13.3988C20.3479 12.5859 20.6966 11.8202 21.2779 11.25C21.8293 10.7008 22.5603 10.3692 23.3367 10.3162C24.601 10.1423 25.7803 9.58017 26.7117 8.7075C27.7722 9.58733 28.6706 10.6458 29.3667 11.835C29.3239 11.8927 29.2749 11.9456 29.2204 11.9925C28.6834 12.5575 27.9602 12.9092 27.1842 12.9825C25.8064 13.1783 24.5295 13.8161 23.5455 14.8001C22.5615 15.7841 21.9237 17.061 21.7279 18.4388C21.6486 19.2132 21.304 19.9365 20.7525 20.4859C20.2009 21.0355 19.4764 21.3774 18.7017 21.4538C17.3213 21.6514 16.0416 22.2892 15.0525 23.2721C14.0635 24.2551 13.4179 25.5309 13.2117 26.91C13.1511 27.4598 12.9622 27.9878 12.6604 28.4513C11.5062 27.7659 10.4724 26.8956 9.60042 25.875ZM18.9042 30.2175C17.7626 30.2187 16.6265 30.0597 15.5292 29.745C15.9046 29.0453 16.1486 28.2826 16.2492 27.495C16.328 26.7222 16.671 26.0003 17.2203 25.4511C17.7695 24.9019 18.4914 24.5589 19.2642 24.48C20.6425 24.283 21.9201 23.645 22.9057 22.6614C23.8912 21.678 24.5319 20.4017 24.7317 19.0238C24.8105 18.251 25.1535 17.5291 25.7028 16.9799C26.252 16.4306 26.9739 16.0876 27.7467 16.0087C28.7839 15.8739 29.7726 15.4876 30.6267 14.8837C31.101 16.6814 31.1571 18.5637 30.7909 20.3865C30.4247 22.2092 29.6458 23.9239 28.514 25.3989C27.3823 26.8738 25.9278 28.07 24.2619 28.8955C22.5961 29.721 20.7633 30.1541 18.9042 30.1613V30.2175Z" fill="#626981"/>
</svg>
