<svg width="156" height="36" viewBox="0 0 156 36" fill="none" xmlns="http://www.w3.org/2000/svg">
<g clip-path="url(#clip0_335_11151)">
<path d="M44.8328 26.1H55.0502V23.1906H47.9484V9.60547H44.8328V26.1Z" fill="#626981"/>
<path d="M61.1905 26.4437C62.4277 26.4437 63.5159 26.1687 64.4551 25.6189C65.402 25.0615 66.1389 24.294 66.6659 23.3166C67.2004 22.3315 67.4677 21.1975 67.4677 19.9146C67.4677 18.6393 67.2042 17.513 66.6773 16.5355C66.1503 15.5504 65.4134 14.7791 64.4665 14.2217C63.5273 13.6642 62.4353 13.3855 61.1905 13.3855C59.9687 13.3855 58.8882 13.6604 57.9489 14.2103C57.0097 14.7601 56.2728 15.5275 55.7382 16.5126C55.2036 17.49 54.9363 18.624 54.9363 19.9146C54.9363 21.1898 55.196 22.3201 55.7153 23.3051C56.2422 24.2826 56.9753 25.05 57.9145 25.6075C58.8539 26.165 59.9458 26.4437 61.1905 26.4437ZM61.1905 23.5343C60.2207 23.5343 59.4839 23.2097 58.9799 22.5606C58.4834 21.9039 58.2353 21.0219 58.2353 19.9146C58.2353 18.8379 58.472 17.9673 58.9455 17.3029C59.4265 16.631 60.1749 16.2949 61.1905 16.2949C62.1757 16.2949 62.9164 16.6233 63.4127 17.2801C63.9167 17.9368 64.1687 18.8149 64.1687 19.9146C64.1687 20.9761 63.9206 21.8466 63.4242 22.5263C62.9355 23.1982 62.1909 23.5343 61.1905 23.5343Z" fill="#626981"/>
<path d="M73.6287 26.4436C74.2091 26.4436 74.7436 26.3748 75.2324 26.2374C75.7288 26.0999 76.1793 25.9052 76.5841 25.6532V26.9018C76.5994 27.3599 76.4809 27.7417 76.2289 28.0472C75.9846 28.3603 75.6562 28.5932 75.2439 28.7459C74.8315 28.9063 74.3924 28.9865 73.9266 28.9865C73.4913 28.9865 73.0866 28.891 72.7124 28.7001C72.3459 28.5092 72.0633 28.2305 71.8647 27.8639L68.9782 29.2614C69.4516 30.0632 70.1275 30.7085 71.0057 31.1972C71.8839 31.6935 72.8499 31.9418 73.9037 31.9418C74.8124 31.9418 75.6562 31.8195 76.4351 31.5752C77.2141 31.3385 77.8708 30.9758 78.4053 30.487C78.9475 29.9983 79.3179 29.3759 79.5164 28.6199C79.5851 28.3526 79.6309 28.0816 79.6539 27.8066C79.6844 27.5394 79.6997 27.253 79.6997 26.9476V13.729H76.9735V14.4163C76.5535 14.0879 76.0762 13.8359 75.5417 13.6603C75.0147 13.477 74.4306 13.3854 73.7891 13.3854C72.6055 13.3854 71.5746 13.668 70.6964 14.233C69.8182 14.7981 69.1348 15.5732 68.6461 16.5583C68.1649 17.5357 67.9244 18.6545 67.9244 19.9145C67.9244 21.1516 68.1611 22.2626 68.6346 23.2478C69.1157 24.2328 69.7838 25.0118 70.6391 25.5845C71.4944 26.1572 72.4909 26.4436 73.6287 26.4436ZM74.1327 23.6716C73.4608 23.6716 72.911 23.5035 72.4833 23.1676C72.0557 22.8316 71.7387 22.3811 71.5326 21.8159C71.3264 21.2432 71.2233 20.6094 71.2233 19.9145C71.2233 19.2272 71.3302 18.6011 71.5441 18.0359C71.7579 17.4632 72.0862 17.0089 72.5291 16.6728C72.9796 16.3292 73.5524 16.1574 74.2473 16.1574C75.2248 16.1574 75.9235 16.5049 76.3435 17.1998C76.7635 17.887 76.9735 18.7919 76.9735 19.9145C76.9735 21.037 76.7596 21.9457 76.3321 22.6406C75.912 23.3279 75.179 23.6716 74.1327 23.6716Z" fill="#626981"/>
<path d="M87.0998 26.4436C88.337 26.4436 89.4252 26.1686 90.3644 25.6188C91.3111 25.0613 92.0482 24.2939 92.5747 23.3165C93.1093 22.3314 93.3766 21.1974 93.3766 19.9145C93.3766 18.6392 93.1138 17.5129 92.5864 16.5354C92.0599 15.5503 91.3228 14.779 90.3758 14.2216C89.4366 13.6641 88.3445 13.3854 87.0998 13.3854C85.878 13.3854 84.7975 13.6603 83.8582 14.2101C82.919 14.7599 82.1821 15.5274 81.6475 16.5125C81.1129 17.4899 80.8456 18.6239 80.8456 19.9145C80.8456 21.1897 81.1053 22.3199 81.6246 23.305C82.1515 24.2825 82.8846 25.0499 83.8238 25.6074C84.7632 26.1648 85.8551 26.4436 87.0998 26.4436ZM87.0998 23.5341C86.13 23.5341 85.3931 23.2096 84.8891 22.5605C84.3927 21.9038 84.1446 21.0218 84.1446 19.9145C84.1446 18.8378 84.3813 17.9672 84.8548 17.3028C85.3358 16.6309 86.0842 16.2948 87.0998 16.2948C88.085 16.2948 88.8257 16.6232 89.322 17.2799C89.826 17.9367 90.078 18.8148 90.078 19.9145C90.078 20.976 89.8298 21.8465 89.3335 22.5261C88.8448 23.1981 88.1002 23.5341 87.0998 23.5341Z" fill="#626981"/>
<path d="M94.75 12.0109H97.8658V9.26184H94.75V12.0109ZM94.75 26.1H97.8658V13.7291H94.75V26.1Z" fill="#626981"/>
<path d="M99.9022 31.5983H103.04V25.6533C103.445 25.9053 103.892 26.1001 104.381 26.2375C104.877 26.3749 105.416 26.4437 105.996 26.4437C107.134 26.4437 108.131 26.1573 108.986 25.5846C109.841 25.0119 110.505 24.2329 110.978 23.2479C111.46 22.2627 111.7 21.1517 111.7 19.9146C111.7 18.6546 111.456 17.5358 110.968 16.5584C110.486 15.5733 109.807 14.7982 108.928 14.2331C108.05 13.6681 107.019 13.3855 105.836 13.3855C105.194 13.3855 104.606 13.4771 104.072 13.6604C103.544 13.836 103.071 14.088 102.652 14.4164V13.7291H99.9022V31.5983ZM105.492 23.6717C104.453 23.6717 103.721 23.3281 103.292 22.6407C102.865 21.9458 102.652 21.0371 102.652 19.9146C102.652 18.7921 102.861 17.8871 103.282 17.1999C103.709 16.505 104.408 16.1575 105.378 16.1575C106.073 16.1575 106.641 16.3293 107.084 16.6729C107.535 17.009 107.867 17.4633 108.08 18.0361C108.295 18.6012 108.402 19.2273 108.402 19.9146C108.402 20.6095 108.298 21.2433 108.092 21.8161C107.886 22.3812 107.569 22.8317 107.142 23.1677C106.714 23.5037 106.164 23.6717 105.492 23.6717Z" fill="#626981"/>
<path d="M117.345 26.4436C118.964 26.4436 120.232 26.0809 121.148 25.3554C122.064 24.6299 122.522 23.6334 122.522 22.3658C122.522 21.4036 122.224 20.6438 121.629 20.0863C121.041 19.5289 120.041 19.0668 118.628 18.7003C117.666 18.4559 116.948 18.2573 116.474 18.1046C116.009 17.952 115.699 17.803 115.546 17.6579C115.401 17.5129 115.329 17.3334 115.329 17.1196C115.329 16.7606 115.5 16.4858 115.844 16.2948C116.196 16.1039 116.658 16.0276 117.23 16.0658C118.444 16.1574 119.109 16.6767 119.224 17.6236L122.408 17.0508C122.248 15.9283 121.698 15.0387 120.758 14.3819C119.82 13.7176 118.621 13.3854 117.162 13.3854C115.665 13.3854 114.47 13.7366 113.576 14.4392C112.683 15.1417 112.236 16.0886 112.236 17.2799C112.236 18.2268 112.546 18.9752 113.164 19.525C113.782 20.0672 114.848 20.533 116.36 20.9225C117.254 21.1592 117.91 21.3501 118.33 21.4952C118.758 21.6403 119.033 21.7892 119.154 21.9419C119.277 22.087 119.338 22.2818 119.338 22.5261C119.338 22.9156 119.185 23.221 118.88 23.4425C118.575 23.6563 118.139 23.7632 117.574 23.7632C116.886 23.7632 116.318 23.599 115.868 23.2706C115.425 22.9423 115.138 22.488 115.008 21.9076L111.824 22.3886C112.03 23.6792 112.611 24.6796 113.565 25.3898C114.528 26.0923 115.788 26.4436 117.345 26.4436Z" fill="#626981"/>
<path d="M128.269 26.4665C129.163 26.4665 129.941 26.3176 130.607 26.0198C131.271 25.722 131.828 25.3249 132.279 24.8285V26.1H135.027V13.729H131.889V20.0061C131.889 20.7698 131.801 21.3883 131.625 21.8618C131.458 22.3276 131.24 22.6827 130.973 22.927C130.706 23.1638 130.419 23.3241 130.113 23.4081C129.808 23.4921 129.522 23.5341 129.255 23.5341C128.591 23.5341 128.075 23.3852 127.709 23.0874C127.349 22.7896 127.089 22.4192 126.929 21.9763C126.769 21.5334 126.674 21.0943 126.643 20.659C126.612 20.2161 126.597 19.8534 126.597 19.5708V13.729H123.435V20.6705C123.435 20.8766 123.451 21.205 123.481 21.6556C123.512 22.1061 123.6 22.6063 123.745 23.1561C123.89 23.6983 124.13 24.2214 124.467 24.7254C124.811 25.2294 125.288 25.6455 125.899 25.974C126.509 26.3023 127.3 26.4665 128.269 26.4665Z" fill="#626981"/>
<path d="M136.832 26.0999H139.97V18.6086C139.97 17.8985 140.165 17.3219 140.554 16.879C140.951 16.4284 141.474 16.2032 142.124 16.2032C142.803 16.2032 143.334 16.4323 143.716 16.8905C144.105 17.341 144.3 17.9748 144.3 18.7919V26.0999H147.416V18.6086C147.416 17.8985 147.61 17.3219 148 16.879C148.397 16.4284 148.92 16.2032 149.569 16.2032C150.249 16.2032 150.779 16.4323 151.161 16.8905C151.55 17.341 151.746 17.9748 151.746 18.7919V26.0999H154.861V17.9672C154.861 16.6155 154.498 15.5236 153.773 14.6912C153.055 13.8512 151.99 13.4312 150.577 13.4312C149.783 13.4312 149.054 13.603 148.389 13.9466C147.725 14.2903 147.194 14.7599 146.797 15.3555C146.476 14.7752 146.018 14.3094 145.422 13.9581C144.827 13.6068 144.086 13.4312 143.2 13.4312C142.451 13.4312 141.765 13.5801 141.138 13.8779C140.512 14.1681 139.993 14.569 139.58 15.0806V13.729H136.832V26.0999Z" fill="#626981"/>
<path fill-rule="evenodd" clip-rule="evenodd" d="M16.9998 2C7.88711 2 0.499817 9.16344 0.499817 18C9.61252 18 16.9998 10.8366 16.9998 2ZM0.499817 18C9.61252 18 16.9998 25.1634 16.9998 34C7.88711 34 0.499817 26.8366 0.499817 18ZM16.9998 34C26.1125 34 33.4998 26.8366 33.4998 18C24.3871 18 16.9998 25.1634 16.9998 34ZM33.4998 18C24.3871 18 16.9998 10.8366 16.9998 2C26.1125 2 33.4998 9.16344 33.4998 18Z" fill="#626981"/>
</g>
<defs>
<clipPath id="clip0_335_11151">
<rect width="154.8" height="36" fill="white" transform="translate(0.700012)"/>
</clipPath>
</defs>
</svg>