<svg width="126" height="40" viewBox="0 0 126 40" fill="none" xmlns="http://www.w3.org/2000/svg">
<g clip-path="url(#clip0_335_11162)">
<path d="M118.981 2.14894C118.981 0.965938 119.94 0.00593848 121.123 0.00593848H122.552C123.12 0.00593848 123.665 0.231718 124.067 0.633609C124.469 1.0355 124.695 1.58058 124.695 2.14894C124.695 2.7173 124.469 3.26238 124.067 3.66427C123.665 4.06616 123.12 4.29194 122.552 4.29194H121.123C120.841 4.29194 120.563 4.2365 120.303 4.12879C120.043 4.02108 119.807 3.86322 119.608 3.66421C119.409 3.4652 119.251 3.22895 119.143 2.96895C119.036 2.70896 118.98 2.43031 118.981 2.14894ZM58.9896 14.2899C58.9896 22.1779 52.5956 28.5729 44.7066 28.5729C36.8186 28.5729 30.4236 22.1779 30.4236 14.2899C30.4236 6.39994 36.8186 0.00693848 44.7066 0.00693848C52.5956 0.00693848 58.9896 6.39994 58.9896 14.2899ZM27.6376 14.2189C28.4276 14.2189 29.0736 14.8589 28.9946 15.6449C28.7246 18.3348 27.6968 20.8927 26.0307 23.0216C24.3645 25.1504 22.1285 26.7627 19.5823 27.6711C17.0361 28.5794 14.2845 28.7466 11.6471 28.153C9.00973 27.5595 6.59494 26.2297 4.6834 24.3181C2.77185 22.4066 1.44204 19.9918 0.848505 17.3544C0.254975 14.7171 0.422101 11.9654 1.33046 9.41924C2.23882 6.87308 3.85111 4.63699 5.97996 2.97085C8.1088 1.3047 10.6668 0.276913 13.3566 0.00693848C14.1416 -0.0730615 14.7826 0.574939 14.7826 1.36294V12.7899C14.7826 13.5799 15.4226 14.2189 16.2116 14.2189H27.6376ZM78.9866 31.4299C80.123 31.4299 81.213 31.8814 82.0165 32.685C82.8201 33.4886 83.2716 34.5785 83.2716 35.7149C83.2716 36.8514 82.8201 37.9413 82.0165 38.7449C81.213 39.5485 80.123 39.9999 78.9866 39.9999H71.8456C70.7091 39.9999 69.6192 39.5485 68.8156 38.7449C68.012 37.9413 67.5606 36.8514 67.5606 35.7149C67.5606 34.5785 68.012 33.4886 68.8156 32.685C69.6192 31.8814 70.7091 31.4299 71.8456 31.4299H78.9866ZM74.7016 28.5729C82.5906 28.5729 88.9856 22.1779 88.9856 14.2899C88.989 11.8669 88.3732 9.48315 87.1966 7.36494L89.5566 5.00494C89.8284 4.73297 90.044 4.41012 90.1911 4.05483C90.3382 3.69954 90.4138 3.31876 90.4137 2.93423C90.4136 2.5497 90.3378 2.16896 90.1906 1.81374C90.0433 1.45852 89.8276 1.13577 89.5556 0.863938C89.2836 0.592102 88.9608 0.376496 88.6055 0.229429C88.2502 0.0823627 87.8694 0.00671637 87.4849 0.00680924C87.1004 0.0069021 86.7196 0.0827323 86.3644 0.22997C86.0092 0.377208 85.6864 0.592971 85.4146 0.864938L83.3546 2.92494C80.8694 1.02684 77.8278 0.000906653 74.7006 0.00593848C66.8136 0.00693848 60.4196 6.39994 60.4196 14.2899C60.4196 22.1779 66.8136 28.5729 74.7016 28.5729ZM118.981 14.2899C118.981 22.1779 112.586 28.5729 104.697 28.5729C96.8086 28.5729 90.4136 22.1779 90.4136 14.2899C90.4136 6.39994 96.8086 0.00693848 104.697 0.00693848C112.586 0.00693848 118.981 6.40094 118.981 14.2899Z" fill="#626981"/>
</g>
<defs>
<clipPath id="clip0_335_11162">
<rect width="125" height="40" fill="white" transform="translate(0.5)"/>
</clipPath>
</defs>
</svg>