<svg width="169" height="36" viewBox="0 0 169 36" fill="none" xmlns="http://www.w3.org/2000/svg">
<path fill-rule="evenodd" clip-rule="evenodd" d="M11.7218 17.8047C11.525 18.3554 11.209 18.8558 10.7961 19.2704H10.7983C10.3233 19.7465 9.73565 20.0952 9.08977 20.2842C8.44387 20.4731 7.76066 20.4963 7.10344 20.3515C6.44621 20.2066 5.83623 19.8985 5.33002 19.4556C4.82381 19.0128 4.43775 18.4495 4.20762 17.818C3.97749 17.1866 3.91073 16.5073 4.01353 15.8432C4.11633 15.1791 4.38535 14.5516 4.79569 14.0191C5.20602 13.4864 5.74438 13.0658 6.36088 12.7962C6.97737 12.5266 7.65206 12.4166 8.32242 12.4766L8.30282 12.4571C8.98888 12.5149 9.67931 12.4225 10.3259 12.1864C10.9726 11.9503 11.5598 11.5762 12.0466 11.0901C12.5335 10.604 12.9082 10.0178 13.1446 9.37215C13.3811 8.72656 13.4737 8.03721 13.4158 7.35223L13.4354 7.37181C13.3585 6.55267 13.5366 5.72978 13.9454 5.01539C14.354 4.30099 14.9735 3.72986 15.7193 3.37987C16.465 3.02989 17.3008 2.91807 18.1125 3.05969C18.9242 3.20131 19.6725 3.58947 20.2552 4.17123C20.8378 4.75299 21.2267 5.50003 21.3685 6.31048C21.5103 7.12094 21.3983 7.95534 21.0478 8.69992C20.6972 9.4445 20.1252 10.063 19.4097 10.4711C18.6942 10.8792 17.8699 11.057 17.0495 10.9802L17.0702 10.9998C16.384 10.9416 15.6933 11.0337 15.0464 11.2697C14.3995 11.5056 13.812 11.8797 13.3249 12.3658C12.8378 12.8519 12.4629 13.4383 12.2263 14.0841C11.9897 14.7299 11.8971 15.4195 11.9551 16.1046L11.9344 16.085C11.9912 16.6669 11.9186 17.2541 11.7218 17.8047ZM18.0964 21.453L18.0757 21.4334C18.6588 21.4921 19.2476 21.4206 19.7998 21.2242C20.3518 21.0278 20.8533 20.7114 21.2679 20.2979C21.6823 19.8843 21.9997 19.3838 22.1968 18.8327C22.3939 18.2817 22.4659 17.6939 22.4076 17.1116L22.4283 17.1312C22.3704 16.4462 22.463 15.7569 22.6993 15.1112C22.9358 14.4657 23.3106 13.8794 23.7974 13.3933C24.2843 12.9073 24.8715 12.5331 25.5181 12.2971C26.1648 12.0609 26.8552 11.9686 27.5413 12.0264L27.5206 12.0068C28.3413 12.0838 29.1658 11.9061 29.8817 11.4979C30.5976 11.0898 31.1699 10.4712 31.5207 9.72638C31.8714 8.98158 31.9835 8.14687 31.8417 7.33611C31.6998 6.52535 31.311 5.77803 30.728 5.19605C30.1451 4.61408 29.3966 4.22579 28.5846 4.08418C27.7725 3.94255 26.9365 4.05447 26.1905 4.40467C25.4445 4.75486 24.8249 5.3263 24.4161 6.04103C24.0073 6.75575 23.8293 7.57898 23.9065 8.3984L23.8869 8.37774C23.9449 9.06276 23.8525 9.75218 23.6162 10.3979C23.3798 11.0436 23.005 11.6299 22.5182 12.1161C22.0313 12.6021 21.444 12.9763 20.7973 13.2123C20.1505 13.4483 19.46 13.5405 18.7739 13.4826L18.7935 13.5032C18.2104 13.4446 17.6215 13.5161 17.0694 13.7125C16.5174 13.9088 16.0159 14.2252 15.6013 14.6388C15.1868 15.0524 14.8695 15.5529 14.6723 16.1039C14.4753 16.655 14.4033 17.2428 14.4616 17.825L14.4419 17.8055C14.4997 18.4904 14.407 19.1797 14.1705 19.8252C13.9339 20.4707 13.5592 21.0569 13.0724 21.543C12.5856 22.029 11.9984 22.4031 11.3519 22.6393C10.7054 22.8754 10.015 22.9679 9.329 22.9103L9.3486 22.9299C8.52787 22.8529 7.70334 23.0306 6.98748 23.4387C6.27162 23.8469 5.69927 24.4655 5.34852 25.2103C4.99776 25.9552 4.88566 26.7898 5.02751 27.6006C5.16936 28.4113 5.55827 29.1587 6.14116 29.7406C6.72406 30.3226 7.47257 30.7109 8.28462 30.8525C9.09667 30.9941 9.9327 30.8822 10.6787 30.532C11.4247 30.1818 12.0443 29.6104 12.4531 28.8957C12.8619 28.1809 13.0399 27.3577 12.9627 26.5383L12.9834 26.5579C12.9255 25.8728 13.0181 25.1836 13.2546 24.5379C13.4909 23.8923 13.8657 23.3061 14.3525 22.8199C14.8394 22.3339 15.4266 21.9597 16.0732 21.7237C16.7199 21.4876 17.4103 21.3952 18.0964 21.453ZM26.1318 15.7272C25.719 16.1419 25.4029 16.6424 25.2059 17.1929C25.009 17.7435 24.9361 18.3306 24.9924 18.9126L24.9728 18.893C25.0308 19.578 24.9382 20.2673 24.7017 20.913C24.4652 21.5585 24.0905 22.1448 23.6038 22.6309C23.1169 23.1169 22.5296 23.4911 21.883 23.7271C21.2364 23.9632 20.5459 24.0557 19.8599 23.9978L19.8795 24.0174C19.0589 23.9412 18.2346 24.1194 17.5191 24.528C16.8037 24.9366 16.2318 25.5555 15.8816 26.3004C15.5314 27.0454 15.4198 27.88 15.562 28.6906C15.7044 29.5011 16.0936 30.2481 16.6767 30.8298C17.2597 31.4114 18.0083 31.7993 18.8202 31.9405C19.6322 32.0819 20.468 31.9697 21.2138 31.6194C21.9596 31.269 22.579 30.6976 22.9876 29.9829C23.3961 29.2682 23.574 28.4451 23.4969 27.6258L23.5176 27.6454C23.4596 26.9605 23.5521 26.2711 23.7886 25.6254C24.0251 24.9799 24.3999 24.3936 24.8867 23.9075C25.3736 23.4214 25.9608 23.0472 26.6074 22.8112C27.2541 22.5751 27.9444 22.4827 28.6305 22.5405L28.6098 22.521C29.2802 22.5811 29.955 22.4714 30.5716 22.2019C31.1881 21.9324 31.7266 21.5119 32.1371 20.9793C32.5475 20.4467 32.8168 19.8192 32.9196 19.1552C33.0225 18.491 32.9559 17.8118 32.7258 17.1801C32.4958 16.5486 32.1097 15.9853 31.6035 15.5423C31.0974 15.0994 30.4874 14.7912 29.8301 14.6463C29.1729 14.5015 28.4896 14.5245 27.8437 14.7134C27.1977 14.9024 26.6101 15.2511 26.1351 15.7272H26.1318Z" fill="#626981"/>
<path d="M47.8807 7.98608H51.4447V25.3297H47.8807V7.98608Z" fill="#626981"/>
<path d="M53.4628 19.3908C53.4579 18.1445 53.8229 16.9246 54.5117 15.8858C55.2005 14.8471 56.1821 14.0362 57.3322 13.5558C58.4823 13.0753 59.749 12.947 60.9721 13.1872C62.1951 13.4273 63.3194 14.0249 64.2025 14.9045C65.0855 15.784 65.6877 16.9058 65.9327 18.1279C66.1778 19.35 66.0545 20.6173 65.5787 21.7693C65.1029 22.9212 64.2959 23.9062 63.26 24.599C62.2239 25.292 61.0057 25.662 59.7592 25.662C58.9319 25.6715 58.111 25.5158 57.3445 25.2043C56.5779 24.8928 55.8812 24.4316 55.295 23.8478C54.7087 23.2639 54.2447 22.569 53.9302 21.8038C53.6156 21.0385 53.4567 20.2182 53.4628 19.3908ZM62.4916 19.3908C62.4767 18.8536 62.3038 18.3326 61.9946 17.8931C61.6852 17.4536 61.2532 17.115 60.7526 16.9198C60.2518 16.7244 59.7047 16.681 59.1795 16.795C58.6543 16.909 58.1743 17.1751 57.7995 17.5604C57.4249 17.9456 57.1719 18.4328 57.0727 18.9611C56.9733 19.4892 57.0317 20.035 57.2409 20.5301C57.4501 21.0252 57.8005 21.4476 58.2483 21.7446C58.6963 22.0416 59.2219 22.2 59.7592 22.2C60.1273 22.2098 60.4934 22.1432 60.8345 22.0045C61.1756 21.8658 61.4842 21.658 61.7409 21.3941C61.9976 21.1301 62.1969 20.8158 62.326 20.471C62.4553 20.1263 62.5117 19.7585 62.4916 19.3908Z" fill="#626981"/>
<path d="M80.2597 13.4507V24.7307C80.2597 28.7219 77.1469 30.4091 73.9873 30.4091C72.8749 30.4924 71.7609 30.2676 70.7677 29.7597C69.7746 29.2516 68.9405 28.4799 68.3569 27.5291L71.3977 25.7711C71.643 26.2667 72.0338 26.6756 72.5178 26.943C73.0019 27.2104 73.556 27.3237 74.1061 27.2675C74.4577 27.3162 74.8158 27.2853 75.1538 27.1769C75.4917 27.0686 75.8011 26.8856 76.0589 26.6416C76.3166 26.3975 76.5162 26.0987 76.6429 25.767C76.7695 25.4355 76.8199 25.0797 76.7905 24.7259V23.6399C76.3731 24.1505 75.842 24.5562 75.2395 24.8244C74.637 25.0926 73.9801 25.2159 73.3213 25.1843C71.7539 25.1349 70.2672 24.4775 69.1759 23.3512C68.0846 22.225 67.4744 20.7183 67.4744 19.1501C67.4744 17.582 68.0846 16.0752 69.1759 14.949C70.2672 13.8227 71.7539 13.1654 73.3213 13.1159C73.9801 13.0844 74.637 13.2076 75.2395 13.4758C75.842 13.744 76.3731 14.1497 76.7905 14.6603V13.4483L80.2597 13.4507ZM76.7917 19.1519C76.8157 18.5776 76.6671 18.0092 76.3653 17.5199C76.0635 17.0306 75.6222 16.6428 75.0981 16.4066C74.5741 16.1702 73.9914 16.0961 73.4249 16.1938C72.8583 16.2915 72.3341 16.5564 71.9193 16.9547C71.5047 17.3529 71.2188 17.866 71.0982 18.4281C70.9777 18.9902 71.0281 19.5755 71.2431 20.1087C71.4581 20.6418 71.8277 21.0986 72.3043 21.4199C72.7809 21.7413 73.3429 21.9126 73.9177 21.9119C74.2922 21.9381 74.6679 21.8855 75.0209 21.7576C75.3738 21.6297 75.696 21.4292 75.9667 21.1692C76.2374 20.9092 76.4508 20.5954 76.5929 20.2479C76.7349 19.9005 76.8027 19.5272 76.7917 19.1519Z" fill="#626981"/>
<path d="M82.2784 19.3908C82.2735 18.1445 82.6384 16.9246 83.3273 15.8858C84.0161 14.8471 84.9977 14.0362 86.1478 13.5558C87.2979 13.0753 88.5646 12.947 89.7877 13.1872C91.0107 13.4273 92.135 14.0249 93.0181 14.9045C93.9011 15.784 94.5033 16.9058 94.7483 18.1279C94.9934 19.35 94.8701 20.6173 94.3943 21.7693C93.9185 22.9212 93.1115 23.9062 92.0756 24.599C91.0395 25.292 89.8213 25.662 88.5748 25.662C87.7475 25.6715 86.9265 25.5158 86.1601 25.2043C85.3935 24.8928 84.6968 24.4316 84.1106 23.8478C83.5243 23.2639 83.0603 22.569 82.7458 21.8038C82.4312 21.0385 82.2723 20.2182 82.2784 19.3908ZM91.3072 19.3908C91.2923 18.8536 91.1194 18.3326 90.8102 17.8931C90.5008 17.4536 90.0688 17.115 89.5682 16.9198C89.0674 16.7244 88.5202 16.681 87.9951 16.795C87.4699 16.909 86.9899 17.1751 86.6151 17.5604C86.2405 17.9456 85.9875 18.4328 85.8881 18.9611C85.7888 19.4892 85.8473 20.035 86.0565 20.5301C86.2657 21.0252 86.6161 21.4476 87.0639 21.7446C87.5119 22.0416 88.0373 22.2 88.5748 22.2C88.9429 22.2098 89.309 22.1432 89.65 22.0045C89.9912 21.8658 90.2998 21.658 90.5565 21.3941C90.8132 21.1301 91.0125 20.8158 91.1416 20.471C91.2709 20.1263 91.3273 19.7585 91.3072 19.3908Z" fill="#626981"/>
<path d="M96.5332 10.2672C96.5332 9.84425 96.6586 9.43081 96.8936 9.07916C97.1285 8.7275 97.4626 8.45341 97.8533 8.29157C98.244 8.12971 98.674 8.08736 99.0888 8.16987C99.5036 8.25239 99.8847 8.45605 100.184 8.75511C100.483 9.05417 100.686 9.43519 100.769 9.85001C100.851 10.2648 100.809 10.6948 100.647 11.0855C100.485 11.4763 100.211 11.8102 99.8596 12.0452C99.508 12.2802 99.0946 12.4056 98.6716 12.4056C98.1063 12.3999 97.5656 12.1729 97.1657 11.773C96.766 11.3732 96.5388 10.8326 96.5332 10.2672ZM96.8932 13.4508H100.458V25.3308H96.8884L96.8932 13.4508Z" fill="#626981"/>
<path d="M115.847 19.3908C115.888 20.176 115.774 20.9615 115.51 21.7023C115.247 22.443 114.84 23.1244 114.312 23.7072C113.784 24.29 113.147 24.7628 112.436 25.0983C111.724 25.4337 110.954 25.6253 110.169 25.662C109.508 25.698 108.848 25.5867 108.236 25.336C107.624 25.0852 107.075 24.7014 106.63 24.2124V30.0816H103.066V13.4508H106.63V14.5668C107.076 14.0782 107.624 13.6947 108.236 13.4442C108.848 13.1937 109.508 13.0824 110.169 13.1184C110.954 13.155 111.725 13.3466 112.436 13.6821C113.147 14.0176 113.785 14.4904 114.313 15.0734C114.841 15.6563 115.248 16.3379 115.511 17.0789C115.774 17.8198 115.889 18.6056 115.847 19.3908ZM112.283 19.3908C112.269 18.8349 112.092 18.2954 111.773 17.8397C111.454 17.3842 111.007 17.0328 110.49 16.8298C109.972 16.6266 109.406 16.5807 108.862 16.6978C108.318 16.8148 107.821 17.0896 107.433 17.4878C107.044 17.886 106.782 18.3898 106.679 18.9364C106.576 19.4829 106.636 20.0476 106.852 20.5601C107.068 21.0726 107.43 21.5099 107.894 21.8175C108.357 22.1249 108.901 22.289 109.457 22.2888C109.839 22.3059 110.22 22.2419 110.576 22.1013C110.931 21.9608 111.253 21.7466 111.519 21.473C111.786 21.1992 111.992 20.8724 112.124 20.5136C112.255 20.1548 112.31 19.7721 112.283 19.3908Z" fill="#626981"/>
<path d="M126.845 21.7655C126.845 24.4979 124.471 25.6619 121.905 25.6619C120.868 25.7558 119.828 25.5366 118.917 25.0325C118.006 24.5285 117.268 23.7629 116.797 22.8347L119.884 21.0767C120.009 21.5057 120.278 21.879 120.644 22.134C121.011 22.3892 121.455 22.5107 121.9 22.4783C122.755 22.4783 123.183 22.2167 123.183 21.7427C123.183 20.4347 117.338 21.1247 117.338 17.0147C117.338 14.4239 119.524 13.1183 121.995 13.1183C122.924 13.0889 123.843 13.3092 124.658 13.7562C125.473 14.2034 126.153 14.8607 126.627 15.6599L123.586 17.2991C123.453 16.988 123.231 16.7229 122.948 16.537C122.665 16.3511 122.333 16.2527 121.995 16.2539C121.377 16.2539 120.997 16.4939 120.997 16.9187C121.001 18.2735 126.845 17.3699 126.845 21.7655Z" fill="#626981"/>
<path d="M139.864 13.4507V25.3307H136.3V24.2135C135.888 24.7064 135.366 25.0949 134.776 25.3469C134.185 25.5989 133.544 25.7072 132.904 25.6631C130.504 25.6631 128.464 23.9531 128.464 20.7431V13.4507H132.028V20.2211C131.998 20.504 132.03 20.7901 132.122 21.0593C132.214 21.3286 132.364 21.5746 132.56 21.7801C132.757 21.9857 132.996 22.1459 133.261 22.2497C133.525 22.3535 133.81 22.3984 134.094 22.3811C135.401 22.3811 136.303 21.6215 136.303 19.9343V13.4543L139.864 13.4507Z" fill="#626981"/>
<path d="M160.3 18.036V25.3296H156.736V18.3444C156.736 17.1564 156.166 16.3968 155.026 16.3968C153.838 16.3968 153.172 17.2284 153.172 18.63V25.3296H149.609V18.3444C149.609 17.1564 149.039 16.3968 147.898 16.3968C146.71 16.3968 146.045 17.2284 146.045 18.63V25.3296H142.481V13.4496H146.045V14.5416C146.415 14.0571 146.9 13.6729 147.455 13.4241C148.012 13.1752 148.622 13.0698 149.229 13.1172C149.838 13.0873 150.446 13.216 150.992 13.4907C151.536 13.7653 152.001 14.1766 152.34 14.6844C152.735 14.1531 153.258 13.7307 153.861 13.4566C154.463 13.1826 155.126 13.0658 155.786 13.1172C158.513 13.1184 160.3 15.066 160.3 18.036Z" fill="#626981"/>
<path d="M163.314 13.3776C164.775 13.3776 165.959 12.1935 165.959 10.7328C165.959 9.27213 164.775 8.08801 163.314 8.08801C161.854 8.08801 160.67 9.27213 160.67 10.7328C160.67 12.1935 161.854 13.3776 163.314 13.3776Z" fill="#626981"/>
</svg>
