<svg width="77" height="48" viewBox="0 0 77 48" fill="none" xmlns="http://www.w3.org/2000/svg">
<g clip-path="url(#clip0_335_11124)">
<path d="M71.8202 5.9002C71.8202 5.95616 71.8202 6.02612 71.8059 6.0681C71.7343 6.61379 71.7343 7.15947 71.7772 7.71915C71.8059 7.85907 71.8344 7.99899 71.949 8.11093C72.135 8.3208 72.4211 8.27883 72.5357 8.02697C72.593 7.90105 72.593 7.77511 72.5643 7.64919C72.4211 7.11749 72.3925 6.55782 72.3783 6.01213C72.3783 5.98415 72.3783 5.94217 72.3783 5.9002C72.5357 5.8862 72.6788 5.87221 72.8075 5.87221C72.9078 5.85822 72.9936 5.84423 73.0652 5.80225C73.2798 5.69032 73.2798 5.45246 73.0508 5.34052C72.965 5.29854 72.8505 5.28455 72.7504 5.28455C72.3926 5.29854 72.0348 5.29854 71.677 5.29854C71.5483 5.29854 71.4195 5.31254 71.2906 5.32652C71.2191 5.34052 71.1332 5.34052 71.076 5.3825C70.9758 5.42447 70.9186 5.49443 70.9186 5.59237C70.9329 5.69032 70.9758 5.74628 71.076 5.78826C71.1332 5.83024 71.2048 5.84423 71.2763 5.84423C71.448 5.85822 71.6342 5.8862 71.8202 5.9002ZM75.7555 6.54383C75.7555 6.55782 75.7698 6.57181 75.7698 6.57181C75.8271 6.94959 75.8843 7.31339 75.9272 7.67717C75.9416 7.80309 75.9559 7.91503 76.0417 8.01297C76.2277 8.25084 76.514 8.22285 76.6427 7.97101C76.7 7.84507 76.7143 7.71915 76.6857 7.57923C76.5999 7.15947 76.5569 6.73971 76.471 6.33395C76.4138 6.08209 76.3423 5.84423 76.2707 5.62036C76.2277 5.48044 76.1276 5.38249 75.9559 5.3685C75.7842 5.34052 75.6553 5.42447 75.5838 5.5504C75.4979 5.66233 75.4264 5.77427 75.3691 5.9002C75.2689 6.12407 75.1831 6.34794 75.0687 6.55782C75.0543 6.61379 75.04 6.65576 75.0114 6.69773C74.9971 6.66975 74.9828 6.65576 74.9828 6.65576C74.7967 6.30596 74.625 5.95616 74.439 5.62036C74.4103 5.59237 74.396 5.56439 74.3817 5.5364C74.2959 5.41048 74.1957 5.34052 74.0383 5.34052C73.8952 5.35451 73.7806 5.43846 73.7092 5.56439C73.6805 5.62036 73.6805 5.66233 73.6662 5.7183C73.6089 6.16604 73.5374 6.61379 73.4802 7.06153C73.4515 7.31339 73.4372 7.56523 73.4372 7.81709C73.4229 7.87305 73.4372 7.94301 73.4658 7.99899C73.4945 8.11092 73.5803 8.18089 73.6948 8.19487C73.8379 8.20887 73.938 8.16689 73.981 8.05495C74.0239 7.97101 74.0383 7.90105 74.0526 7.83109C74.1099 7.57923 74.1527 7.34137 74.1957 7.10351C74.2243 6.96359 74.2386 6.85165 74.2816 6.69773C74.3101 6.75371 74.3387 6.79568 74.3674 6.83765C74.4962 7.00556 74.625 7.17347 74.7824 7.31339C74.9398 7.42531 75.0687 7.41133 75.1974 7.28539C75.2261 7.25741 75.2404 7.24343 75.269 7.21543C75.3978 7.01955 75.5552 6.82367 75.6839 6.62777C75.7126 6.59979 75.7269 6.57181 75.7555 6.54383Z" fill="#626981"/>
<path d="M42.7822 6.17507C42.6827 6.44098 42.6637 6.63256 42.7097 6.79179C42.7604 7.00831 42.8921 7.0792 43.0708 7.02413C44.7516 6.61773 48.4375 7.77126 49.8021 8.09276C50.1239 8.16027 50.3857 7.75407 50.1661 7.38988C49.8456 7.03719 46.1614 5.52718 44.7557 5.44485C44.2047 5.4144 43.2196 5.27625 42.7822 6.17507Z" fill="#626981"/>
<path d="M57.1868 1.28704C57.3659 1.38814 57.4661 1.48457 57.5155 1.59232C57.5891 1.73366 57.5503 1.83145 57.4266 1.88135C56.3155 2.41155 54.837 4.69418 54.2401 5.48143C54.0955 5.66254 53.7618 5.5573 53.7114 5.25948C53.7217 4.92274 55.0323 2.44558 55.7638 1.77088C56.0513 1.50746 56.5261 0.990596 57.1868 1.28704Z" fill="#626981"/>
<path d="M48.3393 0.163414C48.5545 0.0048206 48.7782 -0.0507552 48.8924 0.0523104C50.5688 1.45407 51.4578 3.67389 52.0082 5.70608C52.029 5.75342 52.0303 5.82136 52.0137 5.89224C52.0068 5.95282 51.9615 6.01681 51.8897 6.06633C51.8129 6.12099 51.7467 6.13764 51.7157 6.09053C50.9809 5.11344 46.7845 1.31173 48.3393 0.163414Z" fill="#626981"/>
<path d="M12.8393 24.4665C13.2411 24.1741 13.6779 23.9306 14.1401 23.7416C14.6237 23.6065 15.1391 23.6288 15.6085 23.8055C16.0779 23.9823 16.4757 24.3036 16.7417 24.7209C16.9796 25.1372 17.0727 25.6179 17.007 26.0905C16.9413 26.5629 16.7204 27.0018 16.3774 27.341C16.1116 27.6159 15.8097 27.8553 15.4799 28.0532C14.01 28.9817 12.5271 29.8592 11.0442 30.7877C10.7407 31.0201 10.4188 31.2285 10.0815 31.4109C9.56852 31.6611 8.98222 31.7281 8.42402 31.6003C7.86582 31.4727 7.37083 31.1582 7.02464 30.7114C6.76584 30.3951 6.54743 30.0492 6.37423 29.6812C4.96936 26.7941 3.51246 23.9197 2.15961 20.9816C1.53522 19.7098 1.02791 18.2471 0.533599 16.8354C0.319739 16.4252 0.277977 15.9497 0.417205 15.5098C0.556434 15.07 0.865668 14.7006 1.27913 14.4802C1.69259 14.2599 2.17766 14.206 2.63117 14.3299C3.08468 14.4538 3.47086 14.7459 3.70757 15.1438C4.43515 16.0892 5.07921 17.0934 5.63277 18.1455C7.03764 20.6892 8.37749 23.2328 9.73032 25.7002C9.8091 25.8366 9.89596 25.9682 9.99049 26.0945C11.0087 25.6759 11.9664 25.1286 12.8393 24.4665Z" fill="#626981"/>
<path d="M27.3644 23.5792C24.1515 27.2548 18.7661 26.3263 16.0604 21.5951C14.1352 18.2374 13.797 12.6921 17.9857 9.19446C18.8801 8.46221 19.9496 7.96339 21.0945 7.74453C22.4983 7.54777 23.9298 7.7899 25.1843 8.43636C26.4389 9.08281 27.4523 10.1005 28.0799 11.3439C30.3693 15.4139 30.0441 20.603 27.3644 23.5792ZM26.0636 15.0069C25.7223 14.0067 25.0375 13.1529 24.1254 12.5903C23.6093 12.2306 22.9821 12.0557 22.3496 12.0951C21.717 12.1345 21.1177 12.3857 20.6523 12.8065C18.7922 14.4218 18.4018 18.2501 19.7547 20.5267C19.9271 20.898 20.1803 21.2279 20.4968 21.4934C20.8133 21.7589 21.1853 21.9537 21.5867 22.0638C21.9882 22.1741 22.4094 22.1973 22.821 22.1317C23.2326 22.066 23.6245 21.9133 23.9694 21.6841C24.9777 20.9197 25.7175 19.8672 26.0858 18.6729C26.4542 17.4784 26.4328 16.2015 26.0247 15.0196L26.0636 15.0069Z" fill="#626981"/>
<path d="M40.4769 16.6094C40.148 16.6785 39.8082 16.6827 39.4775 16.6215C39.147 16.5603 38.8322 16.4351 38.5518 16.2533C38.3064 16.116 38.0952 15.9274 37.9334 15.7008C37.7716 15.4743 37.6631 15.2155 37.6159 14.943C37.5686 14.6706 37.5837 14.3913 37.66 14.1252C37.7363 13.8592 37.8722 13.613 38.0575 13.4043C38.3804 12.9849 38.8388 12.6847 39.3583 12.5522C40.7146 12.1673 42.1109 11.9326 43.5209 11.8527C43.8307 11.8174 44.1446 11.8431 44.444 11.928C44.7436 12.0131 45.0226 12.1557 45.265 12.3477C45.5073 12.5396 45.708 12.777 45.8553 13.0458C46.0025 13.3146 46.0934 13.6095 46.1225 13.9131C46.529 15.4043 46.5735 16.9679 46.2525 18.4791C45.0819 23.363 41.0493 25.0418 36.5225 23.4774C35.2518 23.0591 34.1376 22.2798 33.3225 21.239C32.2353 19.9855 31.4645 18.5 31.0721 16.9019C30.7542 15.4788 30.789 14.0022 31.1737 12.595C31.5584 11.1879 32.2818 9.89105 33.2835 8.8129C34.2341 7.64108 35.4679 6.71886 36.8737 6.12928C37.7621 5.65053 38.8016 5.51441 39.7876 5.74772C40.0112 5.80824 40.2142 5.92617 40.3756 6.08927C40.5369 6.25239 40.6507 6.45472 40.7051 6.67531C40.7596 6.89589 40.7526 7.1267 40.6851 7.34379C40.6174 7.56087 40.4918 7.75632 40.3209 7.90988C39.996 8.19739 39.6431 8.45299 39.2672 8.67299C38.1107 9.39307 37.1044 10.3209 36.3013 11.4075C35.775 12.1106 35.4125 12.9179 35.2395 13.7727C35.0663 14.6274 35.087 15.5088 35.2998 16.3551C35.5948 17.5088 36.2494 18.5444 37.1729 19.3184C40.0347 21.8622 43.755 19.4074 43.1046 15.9353C42.1551 16.1643 41.3225 16.4059 40.4769 16.6094Z" fill="#626981"/>
<path d="M57.9604 23.7825C53.7328 26.3263 48.9198 23.7825 47.8661 18.4408C47.0987 14.6252 48.5556 9.28339 53.6548 7.24842C54.7397 6.82476 55.9165 6.67602 57.0759 6.81598C58.4689 7.06531 59.7468 7.73581 60.7292 8.73298C61.7117 9.73014 62.3495 11.0036 62.5523 12.374C63.4108 16.9145 61.4596 21.7603 57.9604 23.7825ZM59.4304 15.2229C59.4291 14.1664 59.0468 13.144 58.3507 12.3358C57.9786 11.836 57.4407 11.4778 56.8287 11.3224C56.2166 11.167 55.5685 11.224 54.9945 11.4837C52.7052 12.4503 51.0921 15.9606 51.6775 18.5426C51.7223 18.9477 51.8569 19.3385 52.0721 19.6875C52.2873 20.0365 52.578 20.3353 52.9237 20.563C53.2693 20.7907 53.6617 20.9419 54.0733 21.0059C54.485 21.0699 54.906 21.0452 55.3068 20.9336C56.5169 20.5203 57.5647 19.7478 58.3039 18.724C59.0432 17.7002 59.4371 16.4762 59.4304 15.2229Z" fill="#626981"/>
<path d="M66.8272 24.8511C66.7633 25.3166 66.5131 25.7382 66.1313 26.0233C65.7495 26.3082 65.2675 26.4333 64.7914 26.3709C64.3153 26.3085 63.8841 26.0637 63.5926 25.6904C63.301 25.3172 63.1732 24.8459 63.237 24.3804C63.3008 23.915 63.5512 23.4933 63.9329 23.2083C64.3147 22.9232 64.7967 22.7982 65.2727 22.8606C65.7488 22.923 66.18 23.1677 66.4716 23.541C66.7631 23.9143 66.8911 24.3856 66.8272 24.8511ZM65.6955 7.69365C65.9429 7.32422 66.3058 7.04288 66.7302 6.8916C67.1544 6.74033 67.6174 6.72722 68.05 6.85423C68.4897 6.96181 68.8782 7.21382 69.1506 7.56807C69.4229 7.92233 69.5624 8.35731 69.5459 8.80017C69.4885 9.51054 69.3799 10.2161 69.2207 10.9114C68.7915 13.2644 68.3752 15.6173 67.9199 17.9448C67.7118 18.8733 67.4386 19.7636 67.1394 20.7047C67.0353 20.999 66.8614 21.2648 66.6321 21.4806C66.4895 21.6429 66.3075 21.7674 66.1026 21.8426C65.8977 21.9178 65.6768 21.9413 65.4603 21.9108C65.2437 21.8804 65.0384 21.7971 64.8635 21.6686C64.6887 21.5399 64.5498 21.3703 64.4598 21.1754C64.3051 20.8256 64.2211 20.4498 64.2126 20.0689C64.2126 18.4917 64.2126 16.9019 64.3167 15.312C64.4935 13.0432 64.8413 10.7901 65.3573 8.57123C65.418 8.27396 65.5325 7.98968 65.6955 7.73181V7.69365Z" fill="#626981"/>
<path fill-rule="evenodd" clip-rule="evenodd" d="M7.34385 35.0713C7.19026 35.4066 7.14814 35.7803 7.2232 36.14C7.27313 36.6141 7.3828 37.0805 7.54971 37.5284C7.75809 38.0769 7.99127 38.6193 8.27879 39.2878C8.34491 39.4416 8.41401 39.6022 8.48632 39.7712C8.87405 40.6769 9.36055 41.8343 10.0095 43.5094C10.1932 43.9853 10.3563 44.465 10.5205 44.9481C10.5869 45.1433 10.6534 45.3391 10.7216 45.5353C10.9659 46.2331 11.3863 46.8599 11.9435 47.3567C12.1802 47.6298 12.494 47.8287 12.8459 47.9282C13.2048 48.0297 13.5864 48.0233 13.9413 47.9098C14.2963 47.7962 14.6081 47.5809 14.8362 47.2917C15.0598 47.0082 15.1928 46.6665 15.2187 46.3096C15.3638 45.6142 15.3142 44.8932 15.0751 44.2229C14.6956 43.1098 14.2633 41.9951 13.7647 40.9049L13.7624 40.9001C12.9423 39.1943 12.1086 37.5003 11.2355 35.8057L11.229 35.7938C10.9734 35.3523 10.6412 34.9577 10.2474 34.6276C9.99169 34.3329 9.63904 34.1341 9.24958 34.0656C8.85183 33.9957 8.4416 34.0662 8.09214 34.2646C7.76155 34.4492 7.49949 34.7316 7.34385 35.0713Z" fill="#626981"/>
<path fill-rule="evenodd" clip-rule="evenodd" d="M19.8699 30.8712C18.5839 30.5455 17.2409 30.4981 15.9344 30.7322C14.9225 30.8296 13.9272 31.0578 13.2361 31.5099C12.8847 31.74 12.6005 32.0354 12.4424 32.4109C12.2835 32.7884 12.2632 33.2202 12.3934 33.7013C12.6312 34.5825 12.9401 35.4393 13.2478 36.2934L13.2977 36.4317L13.2989 36.4348C14.2255 38.916 15.1609 41.3887 16.1049 43.853C16.215 44.2413 16.3707 44.616 16.5688 44.9693L16.5725 44.9758C16.8342 45.4148 17.1699 45.8074 17.5653 46.1372C17.7631 46.3185 18.0077 46.444 18.2729 46.5001C18.5407 46.5566 18.8192 46.5402 19.0781 46.4525C19.3371 46.3649 19.5664 46.2094 19.7411 46.003C19.9131 45.8 20.0256 45.5554 20.067 45.2952C20.2376 44.588 20.1829 43.8468 19.9102 43.1708C19.8251 42.9434 19.7584 42.7109 19.688 42.4662C19.6645 42.3846 19.6408 42.3016 19.6157 42.217C21.7764 41.3912 24.0755 40.2808 24.884 37.6975C25.2006 36.8048 25.227 35.8382 24.9595 34.9301C24.6918 34.021 24.1425 33.2153 23.3874 32.6238C22.3596 31.7958 21.1591 31.1976 19.8699 30.8712ZM16.3053 34.0397C16.3479 34.0277 16.3907 34.0166 16.4337 34.0062C17.8404 33.79 19.2797 34.0781 20.4864 34.8173C21.0183 35.1789 21.2361 35.5807 21.2735 35.9673C21.3121 36.3654 21.1641 36.7968 20.8667 37.2114C20.3048 37.9947 19.2793 38.6216 18.3531 38.7385C17.6778 37.218 16.992 35.6359 16.3053 34.0397Z" fill="#626981"/>
<path d="M28.4432 28.088C29.9746 27.3964 31.8716 27.277 33.356 27.7632C33.7299 27.8697 34.0542 28.1 34.2736 28.4147C34.4915 28.7275 34.5921 29.1044 34.5585 29.4812C34.5563 29.7258 34.4949 29.9664 34.3794 30.1835C34.2618 30.4045 34.0915 30.5946 33.8829 30.7377C33.6743 30.8807 33.4336 30.9727 33.181 31.0055C32.9284 31.0385 32.6715 31.0114 32.4318 30.9266L32.4136 30.9202L32.3964 30.9114C32.2738 30.8486 32.1436 30.8014 32.0088 30.7706L32.0003 30.7688C30.9561 30.4976 29.9711 30.9469 29.6113 31.499C29.4397 31.7623 29.4185 32.028 29.5614 32.2698C29.7144 32.5286 30.0898 32.8191 30.8494 33.0262C31.0583 33.0823 31.2725 33.1364 31.4897 33.1914C32.0903 33.3434 32.7145 33.5014 33.3181 33.7203L33.3204 33.7212C36.1051 34.7571 37.142 36.9026 36.787 38.9206C36.4359 40.9162 34.7313 42.7323 32.168 43.1607C31.2353 43.3629 30.2646 43.3235 29.352 43.0465C28.4372 42.7687 27.6126 42.2617 26.9601 41.5758L26.9431 41.5579C26.7371 41.2994 26.5986 40.9958 26.5372 40.6737C26.4807 40.383 26.5104 40.0825 26.6228 39.8077C26.7345 39.5346 26.9235 39.2982 27.1673 39.1259C27.4248 38.9306 27.7353 38.8135 28.0603 38.789C28.3842 38.7647 28.7083 38.8335 28.9927 38.9869C29.2768 39.1211 29.541 39.2923 29.7781 39.4958L29.7826 39.4995C30.2022 39.8747 30.7098 39.9725 31.1965 39.8819C31.6904 39.7901 32.1548 39.5043 32.4535 39.1253C32.7502 38.7486 32.8693 38.3011 32.728 37.8667C32.5857 37.4291 32.158 36.9389 31.2181 36.529C30.9725 36.427 30.7177 36.3447 30.4528 36.2647C30.3813 36.2431 30.3087 36.2216 30.2351 36.1998C30.0392 36.1416 29.8376 36.0817 29.6399 36.0157C29.5038 35.9703 29.3687 35.9274 29.235 35.8847C28.8694 35.7683 28.513 35.6549 28.17 35.5027C27.4235 35.2542 26.7786 34.777 26.3312 34.1418C25.882 33.504 25.6559 32.7414 25.6867 31.9677C25.6891 30.0823 26.9036 28.7833 28.4432 28.088Z" fill="#626981"/>
<path d="M47.8584 27.8871C47.5615 27.7453 47.2331 27.678 46.903 27.6912C46.5728 27.7045 46.2512 27.7979 45.9672 27.9632C45.685 28.1272 45.4487 28.357 45.2794 28.632C45.1242 28.8636 45.0167 29.1226 44.9632 29.3945C44.9096 29.6663 44.9109 29.9456 44.9669 30.2167C45.0222 30.5651 45.0835 30.9039 45.144 31.2381C45.2443 31.7911 45.3418 32.3316 45.4062 32.8827L45.4086 32.8967C45.5551 33.761 45.6318 34.6352 45.6387 35.5112L45.6393 35.5236C45.6894 36.4696 45.3597 37.3972 44.721 38.1096L44.7108 38.1223C44.503 38.3827 44.2252 38.5814 43.9083 38.6963C43.5915 38.8112 43.2483 38.8376 42.9169 38.7725C42.5856 38.7075 42.2794 38.5537 42.0324 38.3282C41.7855 38.1027 41.6073 37.8136 41.5184 37.495C41.3286 36.8233 41.2187 36.1324 41.1908 35.4362L41.515 30.3893C41.5198 30.3235 41.5253 30.2558 41.5308 30.1875C41.5432 30.0343 41.5558 29.8781 41.5611 29.7325C41.5687 29.5183 41.5621 29.2979 41.5111 29.0893C41.4588 28.8761 41.3595 28.6733 41.1832 28.5007C41.0086 28.3297 40.773 28.2036 40.4765 28.1177C39.9403 27.966 39.4869 27.9708 39.1091 28.1276C38.7311 28.2843 38.4721 28.5754 38.2889 28.9116C38.107 29.245 37.9902 29.6397 37.9018 30.035C37.8363 30.3284 37.7836 30.6363 37.7335 30.9295C37.7161 31.0305 37.6992 31.1296 37.6821 31.226L37.6817 31.2288C37.4137 32.8364 37.334 34.4686 37.444 36.0938C37.4645 36.9721 37.6518 37.8391 37.9965 38.6504C38.3854 39.6972 39.0898 40.6042 40.0168 41.2516C40.9457 41.9004 42.0541 42.2579 43.1955 42.2768C44.3368 42.2956 45.457 41.975 46.4079 41.3575C47.3572 40.7408 48.0929 39.8569 48.5177 38.8228C49.1119 37.5056 49.3909 36.073 49.3333 34.6343C49.2984 33.584 49.24 32.5256 49.1818 31.4725C49.1532 30.956 49.1248 30.4405 49.0992 29.9282C49.0864 29.4145 48.9131 28.9169 48.6027 28.5023C48.4105 28.2401 48.1548 28.0287 47.8584 27.8871Z" fill="#626981"/>
<path d="M58.3685 35.8007C58.3384 35.8381 58.3066 35.8768 58.2735 35.9171C58.0319 34.5547 57.8081 33.1928 57.5839 31.8289C57.5035 31.3395 57.4227 30.848 57.3414 30.358L57.3322 30.3033L57.3026 30.2561C57.2466 30.1672 57.241 30.08 57.241 29.8941V29.8727L57.2376 29.8514C57.177 29.4675 56.9994 29.1102 56.7281 28.8264C56.4575 28.5433 56.1062 28.3463 55.7196 28.2607C55.3338 28.1677 54.9283 28.1882 54.5542 28.3197C54.1811 28.451 53.8559 28.6868 53.6192 28.9977C53.4224 29.2363 53.2611 29.501 53.1402 29.7837C52.8658 30.3929 52.5891 31.0036 52.3115 31.6159L52.3067 31.6265C51.6139 33.1552 50.9164 34.6941 50.2391 36.2452L50.2371 36.2502C49.8213 37.2559 49.4781 38.3156 49.1361 39.3721C49.0678 39.5829 48.9995 39.7937 48.9307 40.0039C48.8072 40.3373 48.7532 40.6914 48.7718 41.0454C48.7493 41.3623 48.8268 41.6785 48.9942 41.9511C49.1648 42.2293 49.4204 42.4481 49.7249 42.5769C50.0476 42.7153 50.4083 42.7446 50.7501 42.6604C51.0911 42.5763 51.394 42.3839 51.611 42.1133C51.888 41.78 52.1264 41.4165 52.3208 41.0315C52.8945 39.884 53.4428 38.7227 53.9886 37.5663C54.1998 37.119 54.405 36.7184 54.6384 36.2822C54.6545 36.336 54.6708 36.3884 54.6878 36.441C54.9324 37.4943 55.3455 38.5032 55.9115 39.4307C56.0187 39.6271 56.1679 39.7988 56.349 39.934C56.5323 40.0708 56.7438 40.1668 56.9688 40.2156C57.1939 40.2643 57.4271 40.2645 57.6523 40.2162C57.8771 40.168 58.0893 40.0719 58.2727 39.9357L58.6356 39.6701L61.4527 37.3501L61.2861 38.3881C61.0575 39.8149 60.8306 41.2298 60.5895 42.645C60.4317 43.2723 60.4319 43.9275 60.5901 44.5546C60.6586 44.9075 60.8332 45.2323 61.0915 45.4878C61.352 45.7454 61.6856 45.9204 62.0491 45.9902C62.4126 46.0599 62.7892 46.0213 63.1299 45.8791C63.4656 45.7392 63.7512 45.5051 63.9509 45.2067C64.4154 44.6432 64.7045 43.9611 64.7839 43.2414C64.9035 42.2251 65.0385 41.195 65.1737 40.1652C65.3294 38.9781 65.485 37.7915 65.6165 36.6276L65.6169 36.624C65.7435 35.3499 65.8047 34.0706 65.8004 32.7905C65.8281 32.386 65.7251 31.983 65.5056 31.6386C65.2854 31.293 64.9592 31.0243 64.5737 30.8706C64.1727 30.6924 63.7238 30.6447 63.293 30.7348C62.865 30.8243 62.4776 31.0448 62.187 31.3644C61.6674 31.8342 61.18 32.337 60.7278 32.8695L60.7247 32.8731C60.2311 33.4745 59.7408 34.0877 59.2537 34.697C58.9576 35.0673 58.6623 35.4368 58.3685 35.8007Z" fill="#626981"/>
</g>
<defs>
<clipPath id="clip0_335_11124">
<rect width="76.3636" height="48" fill="white" transform="translate(0.336365)"/>
</clipPath>
</defs>
</svg>